<?xml version="1.0" encoding="UTF-8"?>
<svg width="128px" height="128px" viewBox="0 0 128 128" version="1.1" xmlns="http://www.w3.org/2000/svg" xmlns:xlink="http://www.w3.org/1999/xlink">
    <!-- Generator: Sketch 63.1 (92452) - https://sketch.com -->
    <title>2D Wireframe 128</title>
    <desc>Created with Sketch.</desc>
    <g id="2D-Wireframe" stroke="none" stroke-width="1" fill="none" fill-rule="evenodd">
        <g transform="translate(2.000000, 2.000000)" fill="#05093B" fill-rule="nonzero" id="Shape" stroke="#265180" stroke-width="4.13121693">
            <path d="M121.043137,122 L0.956862745,122 C0.478431373,122 0,121.521569 0,121.043137 L0,0.956862745 C0,0.478431373 0.478431373,0 0.956862745,0 L121.043137,0 C121.521569,0 122,0.478431373 122,0.956862745 L122,121.043137 C122,121.521569 121.521569,122 121.043137,122 Z M1.91372549,120.086275 L120.086275,120.086275 L120.086275,1.91372549 L1.91372549,1.91372549 L1.91372549,120.086275 Z"></path>
            <path d="M121.322823,122 L60.9894191,122 C60.5105826,122 60.031746,121.523321 60.031746,121.046642 L60.031746,60.9851038 C60.031746,60.5084249 60.5105826,60.031746 60.9894191,60.031746 L120.843986,60.031746 C121.322823,60.031746 121.801659,60.5084249 121.801659,60.9851038 L121.801659,120.569963 C122.280496,121.523321 121.801659,122 121.322823,122 Z M62.4259287,120.093284 L120.36515,120.093284 L120.36515,62.4151404 L62.4259287,62.4151404 L62.4259287,120.093284 Z"></path>
        </g>
    </g>
</svg>