<?xml version="1.0" encoding="UTF-8"?>
<svg width="128px" height="128px" viewBox="0 0 128 128" version="1.1" xmlns="http://www.w3.org/2000/svg" xmlns:xlink="http://www.w3.org/1999/xlink">
    <!-- Generator: Sketch 63.1 (92452) - https://sketch.com -->
    <title>3D Wireframe 128</title>
    <desc>Created with Sketch.</desc>
    <g id="3D-Wireframe" stroke="none" stroke-width="1" fill="none" fill-rule="evenodd" stroke-linecap="round" stroke-linejoin="round">
        <path d="M64.0629333,0 L63.2821333,0.443733333 L10,31.3002667 L10,95.8037333 L10,96.6997333 L10.7765333,97.1477333 L64.0629333,128 L117.345067,97.1477333 L118.125867,96.6997333 L118.125867,31.3002667 L64.8437333,0.443733333 L64.0629333,0 Z M91.4848,80.3797333 L91.4848,49.0581333 L91.4848,48.1621333 L90.704,47.7141333 L64.8437333,32.7381333 L64.8437333,2.24853333 L116.568533,32.1962667 L116.568533,94.8992 L91.4848,80.3797333 Z M11.5573333,32.1962667 L63.2821333,2.24853333 L63.2821333,32.7381333 L37.4176,47.7098667 L36.6410667,48.1621333 L36.6410667,49.0581333 L36.6410667,80.3797333 L11.5573333,94.8992 L11.5573333,32.1962667 Z M63.2821333,62.6858667 L63.2821333,62.6858667 L38.9706667,48.6101333 L63.2821333,34.5386667 L64.0629333,34.0864 L64.8437333,34.5386667 L89.1509333,48.6101333 L64.8437333,62.6858667 L64.8437333,62.6858667 L64.0629333,63.1381333 L63.2821333,62.6858667 Z M64.8437333,66.7477333 L64.8437333,65.8474667 L64.8437333,64.9514667 L64.8437333,64.4864 L70.2368,61.3589333 L89.9274667,49.9626667 L89.9274667,79.4752 L89.9274667,80.4138667 L89.1850667,80.8448 L89.1808,80.8448 L64.8437333,94.8992 L64.8437333,66.7477333 Z M38.2026667,80.4138667 L38.2026667,49.9626667 L63.2821333,64.4864 L63.2821333,64.9514667 L63.2821333,65.8474667 L63.2821333,66.7477333 L63.2821333,94.8992 L38.9450667,80.8448 L38.9408,80.8448 L38.2026667,80.4138667 Z M64.8437333,96.6997333 L90.7381333,81.7450667 L115.792,96.2517333 L64.0629333,126.199467 L12.3296,96.2517333 L37.3877333,81.7450667 L63.2821333,96.6997333 L64.0629333,97.1477333 L64.8437333,96.6997333 Z" stroke="#265180" stroke-width="4.26666667" fill="#05093B"></path>
    </g>
</svg>