<svg width="32" height="35" viewBox="0 0 32 35" fill="none" xmlns="http://www.w3.org/2000/svg">
<path d="M15.5245 5.05246C15.5245 5.26715 15.6983 5.44139 15.9134 5.44139C16.1285 5.44139 16.3023 5.26715 16.3023 5.05246V3.49672C16.3023 3.28203 16.1285 3.10779 15.9134 3.10779C15.6983 3.10779 15.5245 3.28203 15.5245 3.49672V5.05246Z" fill="#05093B"/>
<path d="M15.9134 6.21924C15.6983 6.21924 15.5245 6.39348 15.5245 6.60817V8.16391C15.5245 8.3786 15.6983 8.55284 15.9134 8.55284C16.1285 8.55284 16.3023 8.3786 16.3023 8.16391V6.60817C16.3023 6.39348 16.1285 6.21924 15.9134 6.21924Z" fill="#05093B"/>
<path d="M15.9134 9.33081C15.6983 9.33081 15.5245 9.50505 15.5245 9.71975V11.2755C15.5245 11.4902 15.6983 11.6644 15.9134 11.6644C16.1285 11.6644 16.3023 11.4902 16.3023 11.2755V9.71975C16.3023 9.50505 16.1285 9.33081 15.9134 9.33081Z" fill="#05093B"/>
<path d="M15.9134 12.4423C15.6983 12.4423 15.5245 12.6165 15.5245 12.8312V14.3869C15.5245 14.6016 15.6983 14.7759 15.9134 14.7759C16.1285 14.7759 16.3023 14.6016 16.3023 14.3869V12.8312C16.3023 12.6165 16.1285 12.4423 15.9134 12.4423Z" fill="#05093B"/>
<path d="M31.0818 25.897V8.94179C31.0818 8.93129 31.0783 8.92118 31.0776 8.91068C31.0768 8.89901 31.0748 8.88773 31.0729 8.87645C31.0647 8.83095 31.0519 8.78661 31.0293 8.74732L31.0289 8.74694C31.006 8.70765 30.9741 8.67459 30.9391 8.64542C30.9302 8.63765 30.9212 8.63065 30.9115 8.62403C30.9033 8.6182 30.8967 8.61081 30.8878 8.60575L16.1083 0.0492002C16.0993 0.0437551 16.0892 0.0418106 16.0799 0.0375323C16.069 0.0320872 16.0581 0.0281977 16.0468 0.0239195C15.9601 -0.00797315 15.8667 -0.00797315 15.78 0.0239195C15.7687 0.0281977 15.7578 0.0320872 15.7469 0.0375323C15.738 0.0418106 15.7275 0.0441441 15.7185 0.0492002L0.939043 8.60575C0.930486 8.61081 0.923874 8.6182 0.915318 8.62403C0.905594 8.63103 0.89626 8.63803 0.887315 8.64581C0.851922 8.67498 0.820418 8.70804 0.79786 8.74694L0.797471 8.74732C0.774524 8.78661 0.761689 8.83095 0.75391 8.87645C0.751965 8.88812 0.750021 8.8994 0.749243 8.91107C0.748465 8.92157 0.744965 8.93129 0.744965 8.94179V26.0549C0.744965 26.1937 0.818862 26.3221 0.939043 26.3913L10.1657 31.733C10.1758 31.7462 10.1809 31.7625 10.1933 31.7746C10.256 31.8376 10.3361 31.8679 10.4178 31.8788L15.7185 34.9479C15.7275 34.9533 15.738 34.9557 15.7469 34.9595C15.7578 34.965 15.7687 34.9689 15.78 34.9732C15.8232 34.9891 15.8679 35 15.9134 35C15.9589 35 16.0032 34.9891 16.0468 34.9732C16.0581 34.9689 16.069 34.965 16.0799 34.9595C16.0892 34.9553 16.0993 34.9529 16.1083 34.9479L30.8154 26.4329C30.9193 26.4104 31.0134 26.3478 31.0706 26.249C31.1363 26.1366 31.1316 26.0075 31.0818 25.897ZM29.5813 24.9402C29.3954 24.8329 29.1574 24.8963 29.0501 25.0826C28.9427 25.2689 29.0065 25.5065 29.1924 25.6138L29.9364 26.0432L16.3023 33.937V18.1724L17.0666 18.6134C17.1277 18.6488 17.1946 18.6655 17.2607 18.6655C17.3952 18.6655 17.5259 18.5955 17.5979 18.4711C17.7052 18.2848 17.6414 18.0471 17.4555 17.9398L16.6905 17.498L30.304 9.61659V25.3579L29.5813 24.9402ZM12.6051 32.2467L15.5245 29.3274V30.5611L13.3865 32.6991L12.6051 32.2467ZM11.1272 31.3915L15.5245 26.9938V28.2275L11.9085 31.8434L11.1272 31.3915ZM9.64923 30.5354L15.5245 24.6602V25.8939L10.4302 30.9881L9.64923 30.5354ZM6.69333 28.8241L15.5245 19.993V21.2267L7.4747 29.2768L6.69333 28.8241ZM5.21538 27.9685L15.4105 17.7733C15.4354 17.7484 15.4498 17.7177 15.4669 17.6889L15.5245 17.7228V18.8935L5.99675 28.4208L5.21538 27.9685ZM3.73587 27.112C3.73781 27.1101 3.74054 27.1097 3.74248 27.1077L13.8548 16.9955C13.9073 16.9429 13.9345 16.8784 13.9508 16.8115L14.7878 17.2961L4.51879 27.5651L3.73587 27.112ZM1.52283 25.8309V24.6602L11.0506 15.1325L11.8541 15.5976C11.8168 15.6159 11.7802 15.6365 11.7487 15.6676L1.6364 25.7799C1.61151 25.8048 1.59712 25.8352 1.5804 25.8643L1.52283 25.8309ZM1.52283 9.61659L2.96422 10.4512L1.52283 11.8922V9.61659ZM15.9134 2.32991C16.1285 2.32991 16.3023 2.15567 16.3023 1.94098V1.06004L29.9166 8.94218L16.3023 16.8239V15.9426C16.3023 15.7279 16.1285 15.5537 15.9134 15.5537C15.6983 15.5537 15.5245 15.7279 15.5245 15.9426V16.8239L1.91021 8.94179L15.5245 1.06004V1.94137C15.5245 2.15606 15.6983 2.32991 15.9134 2.32991ZM1.52283 12.9922L3.66081 10.8542L4.46434 11.3193C4.42701 11.3376 4.39045 11.3582 4.35894 11.3894L1.52283 14.2259V12.9922ZM1.52283 15.3258L4.90929 11.9393C4.99174 11.8572 5.02558 11.7476 5.01858 11.6398L5.92129 12.1626C5.91935 12.1645 5.91662 12.1649 5.91468 12.1668L1.52283 16.5595V15.3258ZM1.52283 17.6594L6.46502 12.7172C6.51753 12.6647 6.54475 12.6001 6.56109 12.5332L7.39808 13.0178L1.52283 18.8931V17.6594ZM1.52283 19.993L8.02076 13.495C8.04565 13.4702 8.06004 13.4398 8.07715 13.4106L8.87641 13.8731L1.52283 21.2267V19.993ZM1.52283 22.3266L9.57261 14.2768L10.354 14.7291L1.52283 23.5603V22.3266ZM12.299 16.2176C12.3815 16.1355 12.4153 16.0262 12.4083 15.9181L13.311 16.4408C13.3091 16.4432 13.3064 16.4436 13.3044 16.4455L3.19214 26.5578C3.13963 26.6103 3.11241 26.6749 3.09607 26.7418L2.25947 26.2571L12.299 16.2176ZM15.5245 22.3266V23.5603L9.02654 30.0582C9.00165 30.0831 8.98726 30.1138 8.97054 30.1426L8.17089 29.6802L15.5245 22.3266ZM15.5245 31.661V33.937L14.0831 33.1024L15.5245 31.661Z" fill="#05093B"/>
<path d="M28.2341 24.1624L26.8864 23.3845C26.7005 23.2772 26.4625 23.341 26.3551 23.5269C26.2478 23.7128 26.3116 23.9508 26.4975 24.0582L27.8452 24.836C27.9062 24.8714 27.9731 24.8881 28.0392 24.8881C28.1738 24.8881 28.3045 24.8181 28.3764 24.6937C28.4838 24.5078 28.42 24.2697 28.2341 24.1624Z" fill="#05093B"/>
<path d="M25.5395 22.6067L24.1919 21.8288C24.0056 21.7215 23.7679 21.7852 23.6606 21.9711C23.5532 22.1571 23.617 22.3951 23.8029 22.5024L25.1506 23.2803C25.2117 23.3157 25.2786 23.3324 25.3447 23.3324C25.4792 23.3324 25.6099 23.2624 25.6819 23.1379C25.7896 22.952 25.7258 22.714 25.5395 22.6067Z" fill="#05093B"/>
<path d="M22.8446 21.0509L21.4973 20.273C21.3114 20.1657 21.0734 20.2295 20.9661 20.4154C20.8587 20.6013 20.9225 20.8393 21.1084 20.9466L22.4557 21.7245C22.5167 21.7599 22.5836 21.7766 22.6497 21.7766C22.7843 21.7766 22.915 21.7066 22.987 21.5822C23.0947 21.3963 23.0309 21.1582 22.8446 21.0509Z" fill="#05093B"/>
<path d="M20.1501 19.4952L18.8028 18.7173C18.6165 18.6099 18.3789 18.6737 18.2715 18.8596C18.1642 19.0455 18.228 19.2836 18.4139 19.3909L19.7611 20.1688C19.8222 20.2042 19.8891 20.2209 19.9552 20.2209C20.0898 20.2209 20.2205 20.1509 20.2924 20.0264C20.3998 19.8405 20.336 19.6025 20.1501 19.4952Z" fill="#05093B"/>
</svg>
