<svg width="19" height="22" viewBox="0 0 19 22" fill="none" xmlns="http://www.w3.org/2000/svg">
<path d="M18.7207 5.76V5.72466C18.7028 5.68265 18.6777 5.64412 18.6465 5.6108L13.1783 0.113865C13.1452 0.082558 13.1069 0.0573115 13.0651 0.0392638H13.0299C12.9932 0.0200113 12.9536 0.00675765 12.9127 0H1.95293C1.73721 0 1.56234 0.17579 1.56234 0.392638V10.9939H0.390585C0.174871 10.9939 0 11.1697 0 11.3865V18.454C0 18.6708 0.174871 18.8466 0.390585 18.8466H1.56234V21.5951C1.56234 21.8119 1.73721 21.9877 1.95293 21.9877H18.3575C18.5732 21.9877 18.7481 21.8119 18.7481 21.5951V5.88957C18.7481 5.88957 18.7481 5.88957 18.7481 5.86601C18.7439 5.82956 18.7347 5.79388 18.7207 5.76ZM13.2799 1.3389L17.4162 5.49693H13.2799V1.3389ZM0.78117 11.7791H12.4987V18.0613H0.78117V11.7791ZM2.34351 21.2025V18.8466H12.8893C13.105 18.8466 13.2799 18.6708 13.2799 18.454V11.3865C13.2799 11.1697 13.105 10.9939 12.8893 10.9939H2.34351V0.785276H12.4987V5.88957C12.4987 6.10642 12.6736 6.28221 12.8893 6.28221H17.9669V21.2025H2.34351Z" fill="black"/>
<path d="M18.7207 5.76V5.72466C18.7028 5.68265 18.6777 5.64412 18.6465 5.6108L13.1783 0.113865C13.1452 0.082558 13.1069 0.0573115 13.0651 0.0392638H13.0299C12.9932 0.0200113 12.9536 0.00675765 12.9127 0H1.95293C1.73721 0 1.56234 0.17579 1.56234 0.392638V10.9939H0.390585C0.174871 10.9939 0 11.1697 0 11.3865V18.454C0 18.6708 0.174871 18.8466 0.390585 18.8466H1.56234V21.5951C1.56234 21.8119 1.73721 21.9877 1.95293 21.9877H18.3575C18.5732 21.9877 18.7481 21.8119 18.7481 21.5951V5.88957C18.7481 5.88957 18.7481 5.88957 18.7481 5.86601C18.7439 5.82956 18.7347 5.79388 18.7207 5.76ZM13.2799 1.3389L17.4162 5.49693H13.2799V1.3389ZM0.78117 11.7791H12.4987V18.0613H0.78117V11.7791ZM2.34351 21.2025V18.8466H12.8893C13.105 18.8466 13.2799 18.6708 13.2799 18.454V11.3865C13.2799 11.1697 13.105 10.9939 12.8893 10.9939H2.34351V0.785276H12.4987V5.88957C12.4987 6.10642 12.6736 6.28221 12.8893 6.28221H17.9669V21.2025H2.34351Z" fill="#05093B"/>
</svg>
