<?xml version="1.0" encoding="UTF-8"?>
<svg width="128px" height="128px" viewBox="0 0 128 128" version="1.1" xmlns="http://www.w3.org/2000/svg" xmlns:xlink="http://www.w3.org/1999/xlink">
    <!-- Generator: Sketch 63.1 (92452) - https://sketch.com -->
    <title>bottom 128</title>
    <desc>Created with Sketch.</desc>
    <g id="bottom" stroke="none" stroke-width="1" fill="none" fill-rule="evenodd">
        <g fill-rule="nonzero" id="Shape">
            <polygon fill="#87A5C5" points="43.0933333 85.3333333 3.41333333 124.16 82.3466667 125.866667 125.866667 85.3333333"></polygon>
            <path d="M128,84.48 L128,2.56 C128,2.13333333 128,1.70666667 127.573333,1.70666667 C127.146667,1.28 126.72,0.853333333 126.293333,0.426666667 C126.293333,0 125.44,0 125.44,0 L43.52,0 C43.0933333,0 42.6666667,0 42.24,0.426666667 C42.24,0.426666667 41.8133333,0.426666667 41.8133333,0.853333333 L0.853333333,41.8133333 C0.426666667,41.8133333 0.426666667,42.24 0.426666667,42.24 C0,43.0933333 0,43.0933333 0,43.52 L0,43.52 L0,125.44 L0,125.44 C0,125.866667 0,126.293333 0.426666667,126.293333 C0.853333333,126.72 1.28,127.573333 1.70666667,127.573333 C1.70666667,128 2.56,128 2.56,128 L84.48,128 C84.9066667,128 85.3333333,128 85.76,127.573333 C86.1866667,127.146667 86.1866667,127.146667 86.6133333,127.146667 L127.573333,86.1866667 C128,85.76 128,85.76 128,85.3333333 C128,84.9066667 128,84.9066667 128,84.48 Z M87.04,87.04 L118.613333,87.04 L87.04,118.613333 L87.04,87.04 Z M83.6266667,40.96 L46.08,40.96 L46.08,5.12 L119.04,5.12 L83.6266667,40.96 Z M40.96,40.96 L8.96,40.96 L40.5333333,9.38666667 L40.5333333,40.96 L40.96,40.96 Z M5.12,46.08 L40.5333333,46.08 L40.5333333,83.2 L5.12,119.04 L5.12,46.08 Z M46.08,81.92 L46.08,46.08 L81.4933333,46.08 L81.4933333,81.4933333 L46.08,81.92 L46.08,81.92 Z M87.04,44.3733333 L122.453333,8.96 L122.453333,81.92 L87.04,81.92 L87.04,44.3733333 Z M8.96,122.88 L44.3733333,87.4666667 L81.4933333,87.4666667 L81.4933333,122.88 L8.96,122.88 Z" fill="#05093B"></path>
        </g>
    </g>
</svg>