<svg width="30" height="35" viewBox="0 0 30 35" fill="none" xmlns="http://www.w3.org/2000/svg">
<path d="M29.4209 23.8217V11.0493L29.4327 9.01429L16.6486 1.90118L15.0521 1L13.4555 1.90118C9.29203 4.30499 0.683242 9.01429 0.683242 9.01429L0.683239 11.0493C0.682664 11.6093 0.683239 23.8217 0.683239 23.8217V25.4163C0.683239 25.4163 12.9701 32.6896 13.4555 32.9698L15.0521 34L16.6486 32.9698L29.4404 25.5143L29.4209 23.8217Z" stroke="#05093B" stroke-width="0.9" stroke-linejoin="round"/>
<path d="M29.4209 17.4354L22.2365 21.5864V29.8725" stroke="#05093B" stroke-width="0.9" stroke-linejoin="round"/>
<path d="M7.86765 29.8725V21.5864L0.683228 17.4354" stroke="#05093B" stroke-width="0.9" stroke-linejoin="round"/>
<path d="M0.682983 9L15.0521 17.4514L29.183 9" stroke="#05093B" stroke-width="0.9" stroke-linejoin="round"/>
<path d="M15.0521 34V17.4354" stroke="#05093B" stroke-width="0.9" stroke-linejoin="round"/>
<path d="M7.86768 4.99847L15.0521 9.14948L22.2365 4.99847" stroke="#05093B" stroke-width="0.9"/>
</svg>
