<svg width="31" height="35" viewBox="0 0 31 35" fill="none" xmlns="http://www.w3.org/2000/svg">
<path d="M0.722339 27.577L0.682556 13.5047L12.4112 20.3245L12.449 33.6914L12.0442 33.6931L12.2476 33.3412L12.0442 33.6931L12.449 33.6914L12.4506 34.3996L0.722339 27.577ZM1.53302 27.1085L11.6363 32.9861L11.6018 20.7934L1.49811 14.9182L1.53302 27.1085Z" fill="#05093B"/>
<path d="M18.4148 20.2972L30.0387 13.5819L30.6448 13.2321L30.683 27.3011L18.4538 34.3683L18.4148 20.2972ZM19.2283 20.7657L19.2628 32.9629L29.8711 26.8322L29.8366 14.6366L19.2283 20.7657Z" fill="#05093B"/>
<path d="M3.70282 7.06682L15.9312 0L27.657 6.81897L15.6292 13.7688L15.4254 13.8858L3.70282 7.06682ZM5.32215 7.06966L15.4282 12.9468L26.0369 6.81735L15.93 0.939778L5.32215 7.06966Z" fill="#05093B"/>
</svg>
