<svg width="27" height="21" viewBox="0 0 27 21" fill="none" xmlns="http://www.w3.org/2000/svg">
<path d="M26.5948 10.114C26.4478 9.89673 24.1837 6.59674 20.7667 4.19158L23.4376 1.53683C23.6392 1.33644 23.6392 1.01254 23.4376 0.812156C23.236 0.611768 22.9101 0.611768 22.7085 0.812156L19.8917 3.61194C18.087 2.49674 16.0147 1.68751 13.7918 1.68751C6.76333 1.68751 1.22139 9.77014 0.988847 10.114C0.8718 10.2867 0.8718 10.5128 0.988847 10.6855C1.1358 10.9023 3.39991 14.2028 6.81696 16.6079L4.14602 19.2627C3.94441 19.4631 3.94441 19.787 4.14602 19.9873C4.24657 20.0873 4.37857 20.1375 4.51057 20.1375C4.64257 20.1375 4.77457 20.0873 4.87511 19.9873L7.69197 17.1876C9.49614 18.3038 11.5695 19.1125 13.7918 19.1125C20.8203 19.1125 26.3622 11.0299 26.5948 10.686C26.7118 10.5128 26.7118 10.2873 26.5948 10.114ZM2.04949 10.4C3.09569 8.97474 8.023 2.71251 13.7918 2.71251C15.7007 2.71251 17.5162 3.39977 19.1306 4.36891L16.6855 6.79969C15.8904 6.16778 14.886 5.78751 13.7918 5.78751C11.2333 5.78751 9.15119 7.85698 9.15119 10.4C9.15119 11.4875 9.53378 12.4859 10.1695 13.2756L7.56925 15.8602C4.75239 13.9127 2.68474 11.2651 2.04949 10.4ZM17.4012 10.4C17.4012 12.3777 15.7816 13.9875 13.7918 13.9875C12.9823 13.9875 12.2367 13.7184 11.6344 13.2695L16.6788 8.25571C17.1305 8.85431 17.4012 9.59538 17.4012 10.4ZM10.1824 10.4C10.1824 8.42176 11.8015 6.81251 13.7918 6.81251C14.6008 6.81251 15.3469 7.08208 15.9497 7.53103L10.9053 12.5448C10.4537 11.9457 10.1824 11.2041 10.1824 10.4ZM13.7918 18.0875C11.883 18.0875 10.0675 17.3997 8.45303 16.4311L10.8986 14.0008C11.6927 14.6322 12.6977 15.0125 13.7918 15.0125C16.3509 15.0125 18.4324 12.9435 18.4324 10.4C18.4324 9.31248 18.0498 8.31362 17.4141 7.52437L20.0144 4.93983C22.8312 6.88733 24.8989 9.53439 25.5341 10.4C24.4879 11.8253 19.5606 18.0875 13.7918 18.0875Z" fill="#05093B"/>
</svg>
