<svg width="34" height="34" viewBox="0 0 34 34" fill="none" xmlns="http://www.w3.org/2000/svg">
<path d="M13.1829 1C6.45886 1 1 6.50287 1 13.2811C1 18.5634 4.3128 23.0629 8.96045 24.7947C9.08609 24.8493 9.23142 24.8295 9.33807 24.743C9.44473 24.6566 9.49521 24.5178 9.46926 24.3824C9.44331 24.2469 9.34517 24.137 9.21426 24.0969C4.85032 22.4708 1.73836 18.25 1.73836 13.2811C1.73836 6.90513 6.85791 1.74431 13.1829 1.74431C19.508 1.74431 24.6275 6.90513 24.6275 13.2811C24.6275 19.6571 19.508 24.8179 13.1829 24.8179C13.0498 24.816 12.926 24.8865 12.8588 25.0025C12.7917 25.1184 12.7917 25.2618 12.8588 25.3777C12.926 25.4936 13.0498 25.5641 13.1829 25.5622C16.4137 25.5622 19.3542 24.2963 21.5357 22.2245L32.115 32.889C32.2586 33.0353 32.4924 33.0372 32.6384 32.8933C32.7843 32.7494 32.7876 32.5137 32.6457 32.3657L22.0548 21.6895C24.1067 19.4911 25.3659 16.5349 25.3659 13.2811C25.3659 6.50287 19.907 1 13.1829 1Z" fill="#05093B" stroke="#05093B"/>
<path fill-rule="evenodd" clip-rule="evenodd" d="M19.2078 7.09904C19.1392 7.04347 19.054 7.01283 18.9662 7.012L15.6495 7.01206C15.4338 7.00663 15.2544 7.1785 15.249 7.39618C15.2436 7.61358 15.4141 7.79435 15.63 7.79964C15.6351 7.79978 15.6402 7.79992 15.6453 7.79978L18.0204 7.79973L13.1579 12.7005L8.29565 7.79991L10.6707 7.79987C10.8864 7.80669 11.0669 7.63594 11.0737 7.41854C11.0777 7.28999 11.0191 7.16743 10.9169 7.09056C10.8471 7.03805 10.762 7.01048 10.675 7.01201L7.35851 7.01221C7.14267 7.0111 6.96676 7.18645 6.96551 7.40413C6.96565 7.40538 6.96578 7.40691 6.96565 7.40817L6.96559 10.7507C6.96268 10.9684 7.13513 11.1472 7.35097 11.1502C7.56681 11.1533 7.74424 10.9795 7.74729 10.7619C7.74743 10.7568 7.74729 10.7516 7.74715 10.7465L7.74291 8.35701L12.6052 13.2576L7.74715 18.1539L7.74706 15.7602C7.74844 15.6407 7.69621 15.5271 7.6046 15.4512C7.43781 15.3129 7.19157 15.3371 7.05449 15.5051C6.99479 15.5781 6.96342 15.6701 6.9655 15.7644L6.96557 19.1071C6.96668 19.3229 7.13995 19.4976 7.35414 19.4987L10.6705 19.4986C10.8862 19.5043 11.0656 19.3322 11.071 19.1148C11.0765 18.8973 10.906 18.7165 10.69 18.7111C10.6852 18.7109 10.6799 18.7109 10.6748 18.7111L8.29988 18.711L13.1579 13.8147L18.0201 18.7151L15.6493 18.7108C15.4336 18.7054 15.2542 18.8773 15.2487 19.0948C15.2434 19.3123 15.4139 19.4931 15.6296 19.4985H15.6451L18.9615 19.4985C19.1773 19.4996 19.3533 19.3242 19.3544 19.1067C19.3544 19.1053 19.3544 19.1039 19.3544 19.1025L19.3546 15.7599C19.3558 15.6405 19.3036 15.5269 19.212 15.451C19.0452 15.3127 18.7989 15.3369 18.6619 15.5049C18.6022 15.5779 18.5708 15.6699 18.5729 15.7642L18.5728 18.158L13.7107 13.2576L18.5731 8.35681L18.5731 10.7506C18.5699 10.9683 18.7425 11.147 18.9583 11.15C19.1742 11.1531 19.3516 10.9793 19.3547 10.7617C19.3547 10.7564 19.3547 10.7514 19.3545 10.7463L19.3547 7.40362C19.3538 7.2851 19.2997 7.17327 19.2078 7.09904Z" fill="#05093B" stroke="#05093B"/>
</svg>
