<svg width="28" height="28" viewBox="0 0 28 28" fill="none" xmlns="http://www.w3.org/2000/svg">
<path d="M15.7847 13.5518L2.90461 13.5518V14.4438L15.7847 14.4438C16.0602 15.9533 17.4378 16.914 18.9531 16.7081C20.124 16.5023 21.0194 15.6103 21.2261 14.4438H24.9455V13.5518H21.2261C20.9506 12.0423 19.573 11.0817 18.0577 11.2875C16.8868 11.4934 15.9225 12.3854 15.7847 13.5518ZM20.3307 13.9635C20.3307 14.9927 19.5041 15.8161 18.471 15.8161C17.4378 15.8161 16.6113 14.9927 16.6113 13.9635C16.6113 12.9343 17.4378 12.1109 18.471 12.1109C19.5041 12.1795 20.3307 13.0029 20.3307 13.9635Z" fill="#05093B"/>
<path d="M2.76686 14.5811V13.4832L15.7159 13.4832C15.9225 12.3168 16.8868 11.4248 18.0577 11.2189C19.573 10.9444 21.0194 11.9737 21.3638 13.4832H25.0832V14.5811H21.3638C21.1572 15.7475 20.1929 16.6395 19.022 16.8454C17.5067 17.1198 16.0602 16.0906 15.7159 14.5811L2.76686 14.5811ZM2.97349 13.6204V14.3066L15.8536 14.3066V14.3752C16.1291 15.8161 17.4378 16.7767 18.8842 16.5709C19.9863 16.365 20.8817 15.5417 21.0883 14.3752V14.3066H24.8077V13.6204H21.0883V13.5518C20.9506 12.8657 20.6062 12.2481 19.9863 11.8364C19.3664 11.4248 18.6776 11.2875 17.9888 11.3561C16.8868 11.562 15.9914 12.3854 15.7847 13.5518V13.6204L2.97349 13.6204ZM16.5424 13.9635C16.5424 12.8657 17.4378 12.0423 18.471 12.0423C19.573 12.0423 20.3995 12.9343 20.3995 13.9635C20.3995 14.9927 19.5041 15.8847 18.471 15.8847C17.3689 15.9534 16.5424 15.0614 16.5424 13.9635ZM20.1929 13.9635C20.1929 13.0029 19.4353 12.2481 18.471 12.2481C17.5067 12.2481 16.749 13.0029 16.749 13.9635C16.749 14.9241 17.5067 15.6789 18.471 15.6789C19.4353 15.6789 20.1929 14.9241 20.1929 13.9635Z" fill="#05093B"/>
<path d="M6.55513 6.03739H2.83573V6.94377H6.55513C6.83064 8.47765 8.20819 9.45376 9.7235 9.24459C10.8944 9.03543 11.7898 8.12904 11.9965 6.94377L24.8766 6.94377V6.03739L11.9965 6.03739C11.721 4.50351 10.3434 3.5274 8.82809 3.73657C7.65717 3.94573 6.76176 4.85212 6.55513 6.03739ZM11.1011 6.52544C11.1011 7.57127 10.2745 8.40793 9.24136 8.40793C8.20819 8.40793 7.38166 7.57127 7.38166 6.52544C7.38166 5.47961 8.20819 4.64295 9.24136 4.64295C10.2745 4.64295 11.1011 5.47961 11.1011 6.52544Z" fill="#05093B"/>
<path d="M2.76686 7.0832V5.96765H6.48625C6.69288 4.78238 7.65717 3.87599 8.82809 3.66683C10.3434 3.38794 11.7898 4.43377 12.1342 5.96765L25.0832 5.96765V7.0832L12.1342 7.0832C11.9276 8.26847 10.9633 9.17485 9.79238 9.38402C8.27707 9.66291 6.83064 8.61708 6.48625 7.0832H2.76686ZM2.97349 6.17681V6.87403H6.69288V6.94375C6.9684 8.40791 8.27707 9.38402 9.7235 9.17485C10.8255 8.96569 11.721 8.12903 11.9276 6.94375V6.87403L24.8077 6.87403V6.17681L11.9276 6.17681V6.10709C11.6521 4.64293 10.3434 3.66683 8.89697 3.87599C7.79493 4.08516 6.89952 4.92182 6.69288 6.10709V6.17681H2.97349ZM7.38166 6.52542C7.38166 5.40987 8.27707 4.57321 9.31024 4.57321C10.3434 4.57321 11.2388 5.4796 11.2388 6.52542C11.2388 7.64097 10.3434 8.47763 9.31024 8.47763C8.27707 8.47763 7.38166 7.57125 7.38166 6.52542ZM11.0322 6.52542C11.0322 5.54932 10.2745 4.78238 9.31024 4.78238C8.34595 4.78238 7.58829 5.54932 7.58829 6.52542C7.58829 7.50153 8.34595 8.26847 9.31024 8.26847C10.2745 8.26847 11.0322 7.50153 11.0322 6.52542Z" fill="#05093B"/>
<path d="M6.55513 20.8472H2.83573V21.7392H6.55513C6.83064 23.2487 8.20819 24.2093 9.7235 24.0035C10.8944 23.7976 11.7898 22.9056 11.9965 21.7392L24.8766 21.7392V20.8472L11.9965 20.8472C11.721 19.3376 10.3434 18.377 8.82809 18.5829C7.65717 18.7887 6.76176 19.7493 6.55513 20.8472ZM11.1011 21.3275C11.1011 22.3567 10.2745 23.1801 9.24136 23.1801C8.20819 23.1801 7.38166 22.3567 7.38166 21.3275C7.38166 20.2982 8.20819 19.4749 9.24136 19.4749C10.2745 19.4749 11.1011 20.2982 11.1011 21.3275Z" fill="#05093B"/>
<path d="M2.76686 21.8764V20.7786H6.48625C6.69288 19.6121 7.65717 18.7201 8.82809 18.5143C10.3434 18.2398 11.7898 19.269 12.1342 20.7786L25.0832 20.7786V21.8764L12.1342 21.8764C11.9276 23.0429 10.9633 23.9349 9.79238 24.1407C8.27707 24.4152 6.83064 23.3859 6.48625 21.8764H2.76686ZM2.97349 20.9844V21.6706H6.69288V21.7392C6.9684 23.1801 8.27707 24.1407 9.7235 23.9349C10.8255 23.729 11.721 22.9056 11.9276 21.7392V21.6706L24.8077 21.6706V20.9844L11.9276 20.9844V20.9158C11.6521 19.4749 10.3434 18.5143 8.89697 18.7201C7.79493 18.9259 6.89952 19.7493 6.69288 20.9158V20.9844H2.97349ZM7.38166 21.3275C7.38166 20.2296 8.27707 19.4063 9.31024 19.4063C10.3434 19.4063 11.2388 20.2983 11.2388 21.3275C11.2388 22.4253 10.3434 23.2487 9.31024 23.2487C8.27707 23.2487 7.38166 22.4253 7.38166 21.3275ZM11.0322 21.3275C11.0322 20.3669 10.2745 19.6121 9.31024 19.6121C8.34595 19.6121 7.58829 20.3669 7.58829 21.3275C7.58829 22.2881 8.34595 23.0429 9.31024 23.0429C10.2745 23.0429 11.0322 22.2881 11.0322 21.3275Z" fill="#05093B"/>
<path d="M27.6434 27.4441L27.6434 0.55581C27.6434 0.277895 27.4366 0.069458 27.1608 0.069458L0.482548 0.069458C0.206804 0.069458 -5.72205e-06 0.277895 -5.72205e-06 0.55581L-5.72205e-06 27.4441C-5.72205e-06 27.7221 0.206804 27.9305 0.482548 27.9305L27.1608 27.9305C27.4366 27.861 27.6434 27.6526 27.6434 27.4441ZM1.03404 26.9578L1.03404 1.04216L26.7472 1.04216L26.7472 26.9578L1.03404 26.9578Z" fill="#05093B"/>
<path d="M0 27.4442L0 0.555831C0 0.208437 0.275745 0 0.551489 0L27.2298 0C27.5744 0 27.7812 0.277916 27.7812 0.555831L27.7812 27.4442C27.7812 27.7916 27.5055 28 27.2298 28L0.551489 28C0.275745 28 0 27.7221 0 27.4442ZM27.5744 0.555831C27.5744 0.347395 27.4366 0.208437 27.2298 0.208437L0.551489 0.208437C0.344681 0.208437 0.20681 0.347395 0.20681 0.555831L0.20681 27.4442C0.20681 27.6526 0.344681 27.7916 0.551489 27.7916L27.2298 27.7916C27.4366 27.7916 27.5744 27.6526 27.5744 27.4442L27.5744 0.555831ZM0.896172 27.0968L0.896172 0.972705L26.8161 0.972705L26.8161 27.0968L0.896172 27.0968ZM1.10298 1.11166L1.10298 26.8189L26.6093 26.8189L26.6093 1.11166L1.10298 1.11166Z" fill="#05093B"/>
</svg>
