<svg width="27" height="30" viewBox="0 0 27 30" fill="none" xmlns="http://www.w3.org/2000/svg">
<path fill-rule="evenodd" clip-rule="evenodd" d="M13.1848 13.9099C13.1848 13.7767 13.2693 13.6875 13.3955 13.6875H25.1587C25.286 13.6875 25.3695 13.7767 25.3695 13.9099V18.7151C25.3695 18.8483 25.286 18.9375 25.1587 18.9375H13.3955C13.2693 18.9375 13.1848 18.8483 13.1848 18.7151V13.9099ZM13.1848 23.5349C13.1848 23.4017 13.2693 23.3125 13.3955 23.3125H25.1587C25.286 23.3125 25.3695 23.4017 25.3695 23.5349V28.3401C25.3695 28.4743 25.286 28.5625 25.1587 28.5625H13.3955C13.2693 28.5625 13.1848 28.4743 13.1848 28.3401V23.5349ZM1.43517 6.46508V1.65992C1.43517 1.52667 1.51966 1.4375 1.64592 1.4375H13.4092C13.5354 1.4375 13.6199 1.52667 13.6199 1.65992V6.46508C13.6199 6.59833 13.5354 6.6875 13.4092 6.6875H1.64592C1.51966 6.6875 1.43517 6.59833 1.43517 6.46508ZM13.1878 19.1648H25.1602C25.5042 19.1648 25.8047 18.9076 25.8047 18.5208V13.8831C25.8047 13.5399 25.5042 13.2391 25.1602 13.2391H13.1878C12.8448 13.2391 12.5443 13.5399 12.5443 13.8831V16.5027H7.82298V16.0734V7.05526C7.82298 7.01174 7.82298 6.96919 7.78046 6.92568H13.6169C13.9599 6.92568 14.2604 6.66846 14.2604 6.28167V1.64401C14.2604 1.30073 13.9599 1 13.6169 1H1.64355C1.30052 1 1 1.30073 1 1.64401V6.28167C1 6.62592 1.30052 6.92568 1.64355 6.92568H7.43743C7.39491 6.96919 7.39491 7.01174 7.39491 7.05526V16.0734V16.7174V26.1648C7.39491 26.2944 7.47995 26.3795 7.60943 26.3795H12.5443V28.355C12.5443 28.6993 12.8448 29 13.1878 29H25.1602C25.5042 29 25.8047 28.6993 25.8047 28.355V23.7174C25.8047 23.3741 25.5042 23.0734 25.1602 23.0734H13.1878C12.8448 23.0734 12.5443 23.3741 12.5443 23.7174V25.9501H7.82298V16.932H12.5443V18.5208C12.5443 18.865 12.8448 19.1648 13.1878 19.1648Z" stroke="#05093B"/>
</svg>
