<svg width="32" height="33" viewBox="0 0 32 33" fill="none" xmlns="http://www.w3.org/2000/svg">
<path d="M4.07848 18.6845L3.36995 19.4524C3.32391 19.5025 3.25991 19.532 3.19219 19.5343C3.12453 19.5367 3.05871 19.5119 3.00934 19.4652C2.51522 19.0157 2.09896 18.4863 1.77767 17.8988C1.39427 17.1969 1.24808 16.3882 1.36119 15.5952C1.51864 14.5535 2.12304 13.5476 3.17187 12.6185C3.87462 12.0107 4.64706 11.49 5.47268 11.0674C5.55903 10.5222 5.66315 9.97703 5.77996 9.44209C3.86262 10.2867 2.35922 11.3643 1.3104 12.6543C0.439338 13.76 0 14.899 0 16.125C0 18.0498 1.15041 19.5445 2.11289 20.4557C2.21135 20.5555 2.21135 20.7168 2.11289 20.8166L1.40182 21.5845L5.6149 22.8182L4.07848 18.6845Z" fill="#05093B"/>
<path d="M7.5424 8.24423C6.76571 10.7973 6.3795 13.4547 6.39707 16.125C6.39707 23.9111 9.21341 28.874 11.8469 30.9216C12.8976 31.7611 14.1936 32.2281 15.5343 32.25C19.2344 32.2295 21.4844 28.7767 22.5891 26.4168C22.0329 26.532 21.4514 26.6344 20.8546 26.724L20.7708 26.8776C19.755 28.7102 18.0027 30.8935 15.5318 30.9139C14.229 30.9139 12.9922 30.2766 11.8418 29.0506C8.12649 25.0117 7.83699 18.1368 7.83699 16.125C7.83699 12.0528 8.71058 8.23399 10.2952 5.375C11.3111 3.54494 13.0608 1.35911 15.5318 1.33863C17.5177 1.33863 19.0058 2.87435 19.7169 3.78042C19.7603 3.83567 19.7792 3.90654 19.7691 3.9763C19.759 4.04606 19.7209 4.10854 19.6636 4.14899L18.7773 4.77351L22.965 6.7853L22.1523 2.40339L21.2279 3.04583C21.1187 3.12281 20.969 3.10158 20.8851 2.9972C19.8083 1.62786 17.9849 0 15.5318 0C10.4933 0.0281548 8.14173 6.31691 7.5424 8.24423Z" fill="#05093B"/>
<path d="M24.3795 19.5957C24.5088 18.4434 24.5724 17.2846 24.5699 16.125C24.5699 15.9356 24.5699 15.7436 24.5699 15.5517V15.2343C24.5699 15.0833 24.5699 15.0167 24.5572 14.8683L24.5369 14.4434V14.3922L23.2189 14.4792V14.5509C23.2222 14.6106 23.2222 14.6704 23.2189 14.7301L23.2519 15.7027C23.2519 15.7027 23.2519 15.718 23.2519 15.7257V15.869C23.2519 15.869 23.2519 15.8844 23.2519 15.8921C23.2519 15.8998 23.2519 15.8921 23.2519 15.9074V16.125C23.2535 17.4512 23.1644 18.7759 22.9853 20.0897C23.4728 19.9387 23.9401 19.7723 24.3795 19.5957Z" fill="#05093B"/>
<path d="M31.998 16.125C31.998 14.9246 31.3809 10.8217 23.8208 8.57184C21.2786 7.83388 18.6445 7.46755 15.999 7.48405C14.8516 7.48499 13.7051 7.55336 12.5656 7.68881C12.3827 8.13417 12.2151 8.60512 12.0577 9.09399C13.3637 8.91136 14.6805 8.819 15.999 8.81756C20.0369 8.81756 23.8258 9.64428 26.665 11.1442C28.4833 12.1168 30.6546 13.7702 30.675 16.1224C30.675 17.3638 30.0401 18.5437 28.8211 19.6341C24.8137 23.156 17.9951 23.4299 15.999 23.4299C14.7968 23.4337 13.5956 23.3584 12.4031 23.2046L12.2227 24.5254C13.4749 24.6887 14.7364 24.7691 15.999 24.766C23.7268 24.766 28.6535 22.0989 30.6851 19.6008C31.5079 18.6298 31.9718 17.4017 31.998 16.125Z" fill="#05093B"/>
</svg>
