<svg width="26" height="32" viewBox="0 0 26 32" fill="none" xmlns="http://www.w3.org/2000/svg">
<path d="M15.1425 0C16.2596 0 17.1428 0.824926 17.3306 1.88973C17.7245 1.5642 18.2311 1.36402 18.7799 1.36402C20.0315 1.36402 21.0533 2.3858 21.0533 3.63738V5.48449C21.4364 5.19174 21.8998 5.0014 22.4173 5.0014C23.6593 5.0014 24.6752 6.00781 24.6906 7.24634C24.6907 7.25268 24.9417 11.2923 25.4437 19.3652C25.4546 19.6157 25.2608 19.8279 25.0103 19.8396C24.7598 19.8514 24.5469 19.6583 24.5343 19.4078L23.7813 7.28897C23.7813 6.51123 23.1808 5.91074 22.4173 5.91074C21.7221 5.91074 21.1634 6.39994 21.0675 7.06163C21.0539 7.13267 21.0539 7.14689 21.0533 7.16109V16.3682C21.0556 16.5322 20.9694 16.6847 20.8278 16.7674C20.6862 16.85 20.511 16.85 20.3694 16.7674C20.2278 16.6847 20.1416 16.5322 20.1439 16.3682V3.63738C20.1439 2.87385 19.5434 2.27336 18.7799 2.27336C18.088 2.27336 17.53 2.76739 17.4301 3.42425C17.4287 3.44345 17.424 7.60655 17.4159 15.9135C17.4182 16.0775 17.3321 16.23 17.1904 16.3127C17.0488 16.3953 16.8736 16.3953 16.732 16.3127C16.5904 16.23 16.5042 16.0775 16.5065 15.9135V2.27336C16.5065 1.50983 15.9061 0.909345 15.1425 0.909345C14.379 0.909345 13.7785 1.50983 13.7785 2.27336V15.4589C13.7808 15.6228 13.6947 15.7753 13.5531 15.858C13.4114 15.9407 13.2363 15.9407 13.0946 15.858C12.953 15.7753 12.8669 15.6228 12.8692 15.4589V3.53792C12.7736 2.78799 12.2121 2.27336 11.5052 2.27336C10.7422 2.27336 10.1909 2.86922 10.1411 3.6658L9.2318 18.2153C9.21885 18.3708 9.12709 18.5088 8.9887 18.5809C8.8503 18.653 8.68462 18.6491 8.54979 18.5705C6.23466 17.1814 4.06553 15.4589 1.95705 15.4589C1.44944 15.4589 1.04771 15.8606 1.04771 16.3682C1.04771 16.5751 1.11803 16.756 1.23242 16.9081C1.25918 16.9369 3.41836 19.4555 5.77913 22.1795C8.14672 24.9114 10.7222 27.865 11.3915 28.5591C12.7956 30.0153 14.7653 30.9177 16.9612 30.9177C21.2512 30.9177 24.6906 27.4783 24.6906 23.1883C24.6883 23.0243 24.7745 22.8718 24.9161 22.7892C25.0577 22.7065 25.2329 22.7065 25.3745 22.7892C25.5161 22.8718 25.6023 23.0243 25.6 23.1883C25.6 27.9663 21.7392 31.8271 16.9612 31.8271C14.5155 31.8271 12.3071 30.8116 10.7379 29.1843C9.98951 28.4081 7.4662 25.5098 5.09713 22.7763C2.72805 20.0426 0.5362 17.5049 0.5362 17.5049C0.280576 17.168 0.138363 16.7884 0.138363 16.3682C0.138363 15.3692 0.958009 14.5495 1.95705 14.5495C4.2933 14.5495 6.33884 16.101 8.36508 17.3912L9.2318 3.60896C9.30771 2.39436 10.253 1.36402 11.5052 1.36402C12.059 1.36402 12.559 1.55869 12.9544 1.88973C13.1423 0.824926 14.0255 0 15.1425 0Z" fill="#05093B"/>
</svg>
