<svg width="33" height="34" viewBox="0 0 33 34" fill="none" xmlns="http://www.w3.org/2000/svg">
<path d="M32.2889 20.0959C32.2076 20.0139 32.1264 19.9319 32.0451 19.9319L14.3283 13.8657C14.1657 13.7837 14.0032 13.7837 13.7594 13.8657C13.6781 13.8657 13.5968 13.9477 13.5968 14.0297C13.5156 14.1116 13.4343 14.1936 13.4343 14.2756C13.353 14.4395 13.353 14.6035 13.4343 14.6855L19.367 32.6382C19.4483 32.8021 19.5295 32.9661 19.6921 33.0481C19.8546 33.13 20.0171 33.13 20.261 33.0481C20.3422 33.0481 20.4235 32.9661 20.5048 32.8841L23.8368 29.5231L27.819 33.5399C27.9003 33.6219 28.0629 33.6219 28.1441 33.5399L32.9391 28.7033C33.0203 28.6214 33.0203 28.4574 32.9391 28.3754L28.9568 24.3586L32.2889 21.0796C32.614 20.8337 32.614 20.4238 32.2889 20.0959ZM27.5752 23.9487C27.4127 24.1127 27.3314 24.2766 27.3314 24.4406C27.3314 24.6046 27.4127 24.7685 27.494 24.9325L31.1511 28.6214L30.9886 28.7853L27.9816 31.8184L27.819 31.6545L23.9994 27.8016C23.9181 27.7196 23.7556 27.7196 23.6743 27.8016L20.3422 31.1626L15.2222 15.6692L30.501 20.9156L27.5752 23.9487Z" fill="#05093B"/>
<path d="M1 1.24143C1 1.24143 4.41333 -0.23414 5.14476 4.11058C5.3073 5.01232 2.95048 7.47159 6.68889 9.52099C8.96444 10.7506 11.24 9.02913 12.3778 12.0622" stroke="#05093B" stroke-linecap="round" stroke-linejoin="round"/>
</svg>
