<svg width="36" height="31" viewBox="0 0 36 31" fill="none" xmlns="http://www.w3.org/2000/svg">
<path d="M33.0991 4.43024H14.6198C14.5083 4.44199 14.3956 4.42858 14.2899 4.39101C14.1842 4.35343 14.0881 4.29264 14.0088 4.21306C13.9295 4.13349 13.869 4.03714 13.8315 3.93107C13.7941 3.82499 13.7807 3.71186 13.7924 3.59994V1.93933C13.8042 1.68177 13.7623 1.42457 13.6695 1.18417C13.5766 0.943769 13.4348 0.725439 13.2531 0.543126C13.0714 0.360812 12.8539 0.218522 12.6143 0.12534C12.3747 0.0321578 12.1184 -0.00986723 11.8617 0.00194828H1.93261C1.67594 -0.00986723 1.41964 0.0321578 1.18007 0.12534C0.940499 0.218522 0.722926 0.360812 0.541244 0.543126C0.359563 0.725439 0.217765 0.943769 0.124905 1.18417C0.0320464 1.42457 -0.00983305 1.68177 0.00194153 1.93933V28.855C0.00497214 29.4564 0.24259 30.0326 0.663884 30.4603C0.966275 30.7665 1.369 30.9523 1.79746 30.9834C1.84165 30.9945 1.88705 31.0001 1.93261 31H33.3749C34.5664 31 35.3056 29.8514 35.3056 28.7859V6.64439C35.3056 5.23841 34.5002 4.43024 33.0991 4.43024ZM15.4197 21.1415L23.6747 16.3894L34.2023 21.6286V28.725L15.4197 21.1415ZM1.93261 1.10902H11.8617C11.9733 1.09728 12.086 1.11068 12.1917 1.14826C12.2974 1.18583 12.3935 1.24662 12.4728 1.3262C12.5521 1.40577 12.6126 1.50212 12.6501 1.6082C12.6875 1.71427 12.7009 1.82741 12.6892 1.93933V3.59994C12.6774 3.8575 12.7193 4.11469 12.8121 4.35509C12.905 4.59549 13.0468 4.81382 13.2285 4.99614C13.4102 5.17845 13.6277 5.32074 13.8673 5.41392C14.1069 5.50711 14.3632 5.54913 14.6198 5.53731H33.0991C33.8934 5.53731 34.2023 5.8473 34.2023 6.64439V20.3915L23.9008 15.2657C23.8199 15.2252 23.7303 15.2053 23.6399 15.2077C23.5494 15.2101 23.461 15.2348 23.3823 15.2796L14.1151 20.6157L9.6139 18.8001C9.5366 18.7689 9.45327 18.7556 9.37015 18.7614C9.28703 18.7672 9.20629 18.7917 9.13399 18.8333L1.10518 23.4387V1.93933C1.09348 1.82741 1.10683 1.71427 1.14428 1.6082C1.18172 1.50212 1.24231 1.40577 1.3216 1.3262C1.4009 1.24662 1.49691 1.18583 1.60263 1.14826C1.70834 1.11068 1.82107 1.09728 1.93261 1.10902ZM2.05121 29.8929C2.01171 29.8904 1.9721 29.8904 1.93261 29.8929C1.84188 29.8932 1.75205 29.875 1.66859 29.8393C1.58512 29.8036 1.50979 29.7512 1.44718 29.6854C1.23248 29.4627 1.11276 29.1649 1.11345 28.855V24.7035H1.14103L9.45117 19.9293L33.7748 29.749C33.6612 29.8403 33.5205 29.891 33.3749 29.8929H2.05121Z" fill="#05093B"/>
<path d="M8.6111 15.5C9.46278 15.5 10.2953 15.2474 11.0034 14.7742C11.7115 14.301 12.2634 13.6284 12.5892 12.8415C12.915 12.0546 13.0001 11.1887 12.8337 10.3535C12.6674 9.51819 12.257 8.75102 11.6546 8.14899C11.0522 7.54696 10.2847 7.13712 9.44934 6.97131C8.61396 6.80549 7.74817 6.89116 6.96148 7.21747C6.17479 7.54378 5.50255 8.09607 5.02979 8.80448C4.55703 9.5129 4.30499 10.3456 4.30554 11.1973C4.30778 12.3382 4.7622 13.4318 5.56925 14.2383C6.37629 15.0448 7.47014 15.4985 8.6111 15.5ZM8.6111 8.01529C9.23976 8.01529 9.85431 8.20167 10.3771 8.55088C10.8998 8.90009 11.3073 9.39645 11.548 9.9772C11.7887 10.558 11.8518 11.197 11.7294 11.8137C11.607 12.4303 11.3044 12.9968 10.8601 13.4415C10.4158 13.8862 9.84957 14.1892 9.23305 14.3122C8.61653 14.4352 7.97739 14.3727 7.39643 14.1325C6.81546 13.8923 6.31874 13.4852 5.96907 12.9628C5.6194 12.4403 5.43247 11.826 5.43191 11.1973C5.43266 10.3541 5.76776 9.54559 6.36373 8.94909C6.9597 8.35259 7.7679 8.01678 8.6111 8.01529Z" fill="#05093B"/>
</svg>
