<svg width="28" height="29" viewBox="0 0 28 29" fill="none" xmlns="http://www.w3.org/2000/svg">
<path fill-rule="evenodd" clip-rule="evenodd" d="M0 5.90255H5.96822V0H0V5.90255ZM1.05256 4.8602H4.91566V1.04098H1.05256V4.8602Z" fill="#05093B"/>
<path fill-rule="evenodd" clip-rule="evenodd" d="M0 6.24589H6.31676V0H0V6.24589ZM0.347151 5.90255H5.96822V0.343332H0.347151V5.90255ZM1.05395 5.20491H5.26281V1.04235H1.05395V5.20491ZM1.39971 4.86157H4.91566V1.38569H1.39971V4.86157Z" fill="#05093B"/>
<path fill-rule="evenodd" clip-rule="evenodd" d="M0 16.8892H5.96822V10.9866H0V16.8892ZM1.05256 15.8482H4.91566V12.029H1.05256V15.8482Z" fill="#05093B"/>
<path fill-rule="evenodd" clip-rule="evenodd" d="M0 17.2325H6.31676V10.9866H0V17.2325ZM0.347151 16.8878H5.96822V11.33H0.347151V16.8878ZM1.05395 16.1902H5.26281V12.029H1.05395V16.1902ZM1.39971 15.8482H4.91566V12.3709H1.39971V15.8482Z" fill="#05093B"/>
<path fill-rule="evenodd" clip-rule="evenodd" d="M0 27.8758H5.96822V21.9732H0V27.8758ZM1.05256 26.8334H4.91566V23.0142H1.05256V26.8334Z" fill="#05093B"/>
<path fill-rule="evenodd" clip-rule="evenodd" d="M0 28.2205H6.31676V21.9732H0V28.2205ZM0.347151 27.8771H5.96822V22.3179H0.347151V27.8771ZM1.05395 27.1781H5.26281V23.0156H1.05395V27.1781ZM1.39971 26.8348H4.91566V23.3589H1.39971V26.8348Z" fill="#05093B"/>
<path fill-rule="evenodd" clip-rule="evenodd" d="M8.33163 3.789H27.4427V2.74664H8.33163V3.789Z" fill="#05093B"/>
<path fill-rule="evenodd" clip-rule="evenodd" d="M8.44446 3.96853H28V2.64569H8.44446V3.96853ZM8.44446 3.75864H27.5556V3.08664H8.44446V3.75864Z" fill="#05093B"/>
<path fill-rule="evenodd" clip-rule="evenodd" d="M8.33163 14.7756H27.4427V13.7333H8.33163V14.7756Z" fill="#05093B"/>
<path fill-rule="evenodd" clip-rule="evenodd" d="M8.53125 14.7716H27.6424V13.4488H8.53125V14.7716ZM8.97569 14.5617H27.1979V13.8897H8.97569V14.5617Z" fill="#05093B"/>
<path fill-rule="evenodd" clip-rule="evenodd" d="M8.33163 25.4987H27.4427V24.4578H8.33163V25.4987Z" fill="#05093B"/>
<path fill-rule="evenodd" clip-rule="evenodd" d="M8.44446 26.0158H28V24.6929H8.44446V26.0158ZM8.44446 25.3649H27.5556V24.6929H8.44446V25.3649Z" fill="#05093B"/>
</svg>
