<svg width="470" height="343" viewBox="0 0 470 343" fill="none" xmlns="http://www.w3.org/2000/svg">
<path d="M305.173 44.6061H274.94C274.042 44.6061 273.144 43.7019 273.144 42.7978C273.144 41.8936 274.042 40.9894 274.94 40.9894H305.173C306.072 40.9894 306.97 41.8936 306.97 42.7978C306.97 43.7019 306.072 44.6061 305.173 44.6061Z" fill="#05093B"/>
<path d="M305.174 45.5104H274.941C273.444 45.5104 272.247 44.3048 272.247 42.7979C272.247 41.2909 273.444 40.0853 274.941 40.0853H305.174C306.671 40.0853 307.868 41.2909 307.868 42.7979C307.569 44.3048 306.371 45.5104 305.174 45.5104ZM274.941 41.5923C274.342 41.5923 273.743 42.1951 273.743 42.7979C273.743 43.4006 274.342 44.0034 274.941 44.0034H305.174C305.773 44.0034 306.371 43.4006 306.371 42.7979C306.371 42.1951 305.773 41.5923 305.174 41.5923H274.941Z" fill="#05093B"/>
<path d="M305.173 54.2508H290.206C289.308 54.2508 288.41 53.3467 288.41 52.4425C288.41 51.5383 289.308 50.6341 290.206 50.6341H305.173C306.071 50.6341 306.969 51.5383 306.969 52.4425C306.969 53.3467 306.071 54.2508 305.173 54.2508Z" fill="#05093B"/>
<path d="M305.173 54.8535H290.206C288.71 54.8535 287.512 53.6479 287.512 52.141C287.512 50.634 288.71 49.4284 290.206 49.4284H305.173C306.67 49.4284 307.867 50.634 307.867 52.141C307.867 53.6479 306.371 54.8535 305.173 54.8535ZM289.907 51.2368C289.308 51.2368 288.71 51.8396 288.71 52.4424C288.71 53.0452 289.308 53.6479 289.907 53.6479H304.874C305.473 53.6479 306.071 53.0452 306.071 52.4424C306.071 51.8396 305.473 51.2368 304.874 51.2368H289.907Z" fill="#05093B"/>
<path d="M200.105 31.0435C198.908 31.0435 197.711 31.9477 197.411 33.1533L186.036 88.911C186.036 89.5138 186.036 90.4179 186.635 91.0207C187.234 91.6235 187.833 91.9249 188.431 91.9249H273.145C276.437 91.9249 279.131 89.5138 279.73 86.4998L290.506 34.3589C290.806 33.4547 290.506 32.8519 289.908 32.2491C289.309 31.6463 288.71 31.3449 287.812 31.3449H200.105V31.0435ZM273.145 95.5416H188.431C186.635 95.5416 184.839 94.6374 183.642 93.1305C182.444 91.6235 182.145 89.8152 182.444 88.0068L193.819 32.2491C194.418 29.2352 197.112 27.1254 200.105 27.1254H287.812C289.608 27.1254 291.704 28.0296 292.901 29.5366C294.098 31.0435 294.697 32.8519 294.098 34.9616L283.322 87.1026C282.424 91.9249 278.233 95.5416 273.145 95.5416Z" fill="#05093B"/>
<path d="M273.144 96.1444H188.431C186.335 96.1444 184.539 95.2402 183.043 93.7332C181.845 92.2263 181.247 90.1165 181.546 88.0068L192.921 32.2491C193.52 28.9338 196.513 26.5226 199.806 26.5226H287.513C289.608 26.5226 291.703 27.4268 293.2 29.2352C294.697 31.0435 294.996 33.1533 294.697 35.263L283.921 87.404C283.023 92.2263 278.532 96.1444 273.144 96.1444ZM200.105 27.7282C197.411 27.7282 195.016 29.5365 194.717 32.2491L183.342 88.0068C183.043 89.5137 183.342 91.3221 184.539 92.5277C185.437 93.7332 187.233 94.6374 188.73 94.6374H273.444C278.233 94.6374 282.124 91.3221 283.022 86.8012L293.799 34.6602C294.098 33.1533 293.799 31.3449 292.601 29.8379C291.404 28.6324 289.907 27.7282 288.111 27.7282H200.105ZM273.144 92.5277H188.431C187.533 92.5277 186.635 92.2263 186.036 91.3221C185.437 90.7193 185.138 89.5137 185.437 88.6096L196.812 32.8519C197.112 31.3449 198.608 30.1393 200.105 30.1393H287.812C288.71 30.1393 289.907 30.7421 290.506 31.3449C291.105 32.2491 291.404 33.1533 291.105 34.0574L280.328 86.1984C279.73 89.8151 276.736 92.5277 273.144 92.5277ZM200.105 31.6463C199.207 31.6463 198.309 32.2491 198.309 33.1533L186.934 88.911C186.934 89.5137 186.934 89.8151 187.233 90.4179C187.533 90.7193 188.132 91.0207 188.431 91.0207H273.144C276.138 91.0207 278.532 88.911 279.131 86.1984L289.907 34.0574C289.907 33.4547 289.907 32.8519 289.608 32.5505C289.309 32.2491 288.71 31.9477 288.111 31.9477H200.105V31.6463Z" fill="#05093B"/>
<path d="M272.247 31.0435C271.349 31.0435 270.75 30.4407 270.451 29.8379L262.07 6.93203C261.77 6.32924 261.471 6.02785 261.172 5.72645C260.872 5.42506 260.274 5.42506 259.675 5.72645L210.284 31.0435C209.386 31.6462 208.188 31.0435 207.889 30.1393C207.29 29.2351 207.889 28.0295 208.787 27.7281L258.178 2.41113C258.178 2.41113 258.178 2.41113 258.478 2.41113C259.974 1.80835 261.471 1.80835 262.668 2.71253C264.165 3.31531 265.063 4.52088 265.662 6.02785L274.043 28.9337C274.343 29.8379 274.043 31.0435 272.846 31.3449C272.547 30.7421 272.547 31.0435 272.247 31.0435Z" fill="#05093B"/>
<path d="M272.247 31.6462C271.05 31.6462 270.152 31.0434 269.852 29.8379L261.471 6.932C261.471 6.63061 261.171 6.32921 260.872 6.32921C260.573 6.32921 260.273 6.32921 259.974 6.32921L210.882 31.3448C210.283 31.6462 209.685 31.6462 208.787 31.6462C208.188 31.3448 207.589 31.0434 207.29 30.4406C206.691 29.2351 207.29 27.4267 208.487 26.8239L257.879 1.50693H258.178C259.675 0.904141 261.471 0.904141 262.967 1.80832C264.464 2.41111 265.661 3.91807 266.26 5.42504L274.642 28.3309C274.941 28.9337 274.941 29.8379 274.642 30.4406C274.342 31.0434 273.744 31.6462 273.145 31.9476C272.846 31.6462 272.546 31.6462 272.247 31.6462ZM260.273 4.82225C260.573 4.82225 260.872 4.82225 261.471 5.12364C262.069 5.42504 262.668 6.02782 262.967 6.63061L271.349 29.5365C271.648 30.1393 272.247 30.4406 272.846 30.1393C273.444 29.8379 273.744 29.2351 273.444 28.6323L265.063 5.72643C264.464 4.52086 263.566 3.61668 262.369 3.01389C261.171 2.41111 259.974 2.41111 258.477 2.7125L209.086 28.0295C208.487 28.3309 208.188 28.9337 208.487 29.5365C208.487 29.8379 208.787 30.1393 209.086 30.1393C209.385 30.1393 209.685 30.1393 209.984 30.1393L259.375 4.82225C259.675 4.82225 259.974 4.82225 260.273 4.82225Z" fill="#05093B"/>
<path d="M279.43 31.0434H272.246C271.348 31.0434 270.45 30.1392 270.45 29.2351C270.45 28.3309 271.348 27.4267 272.246 27.4267H277.634V19.8919C277.634 17.7821 275.838 15.9738 273.743 15.9738H266.858C265.96 15.9738 265.062 15.0696 265.062 14.1654C265.062 13.2612 265.96 12.3571 266.858 12.3571H273.743C277.934 12.3571 281.226 15.6724 281.226 19.8919V29.2351C281.226 30.1392 280.328 31.0434 279.43 31.0434Z" fill="#05093B"/>
<path d="M279.43 31.6463H272.246C270.75 31.6463 269.552 30.4407 269.552 28.9337C269.552 27.4268 270.75 26.2212 272.246 26.2212H276.736V19.2892C276.736 17.4808 275.24 16.2752 273.743 16.2752H266.858C265.361 16.2752 264.164 15.0697 264.164 13.5627C264.164 12.0557 265.361 10.8502 266.858 10.8502H273.743C278.233 10.8502 282.125 14.4669 282.125 19.2892V28.6323C281.825 30.4407 280.927 31.6463 279.43 31.6463ZM272.246 27.7282C271.648 27.7282 271.049 28.331 271.049 28.9337C271.049 29.5365 271.648 30.1393 272.246 30.1393H279.43C280.029 30.1393 280.628 29.5365 280.628 28.9337V19.5906C280.628 15.9738 277.634 12.6585 273.743 12.6585H266.858C266.259 12.6585 265.661 13.2613 265.661 13.8641C265.661 14.4669 266.259 15.0697 266.858 15.0697H273.743C276.138 15.0697 278.233 17.1794 278.233 19.5906V28.0296H272.246V27.7282Z" fill="#05093B"/>
<path d="M185.737 94.6374C185.437 94.6374 185.138 94.6374 184.839 94.336C182.743 92.829 181.247 90.4179 181.247 88.0067V8.439C181.247 4.2195 184.539 0.904175 188.73 0.904175H209.983C211.779 0.904175 213.276 1.80835 214.473 3.01393L221.658 12.0557H239.019C239.917 12.0557 240.815 12.9599 240.815 13.8641C240.815 14.7683 239.917 15.6724 239.019 15.6724H221.658C220.46 15.6724 219.263 15.0696 218.664 14.1655L211.48 4.82228C211.181 4.52089 210.582 4.2195 209.983 4.2195H188.73C186.635 4.2195 184.839 6.02785 184.839 8.13761V87.7053C184.839 88.9109 185.437 90.1165 186.635 91.0207C187.533 91.6235 187.832 92.829 187.233 93.7332C187.233 94.336 186.635 94.6374 185.737 94.6374Z" fill="#05093B"/>
<path d="M185.737 95.2402C185.138 95.2402 184.839 95.2402 184.24 94.9388C181.845 93.4318 180.349 90.7193 180.349 88.0067V8.439C180.349 3.91811 183.941 0 188.73 0H209.983C212.079 0 213.875 0.904179 215.072 2.41114L222.256 11.4529H239.319C240.815 11.4529 242.013 12.6585 242.013 14.1655C242.013 15.6724 240.815 16.878 239.319 16.878H221.957C220.46 16.878 219.263 16.2752 218.365 15.0696L211.181 5.72647C210.881 5.42507 210.582 5.42507 210.283 5.42507H189.03C187.233 5.42507 186.036 6.93204 186.036 8.439V88.0067C186.036 88.9109 186.635 90.1165 187.533 90.4179C188.73 91.3221 189.03 92.829 188.431 94.0346C187.533 94.9388 186.635 95.2402 185.737 95.2402ZM189.03 1.20557C185.138 1.20557 182.145 4.2195 182.145 8.13761V87.7053C182.145 90.1165 183.342 92.2262 185.437 93.4318C186.036 93.7332 186.635 93.7332 186.934 93.1304C187.233 92.5276 187.233 91.9248 186.635 91.6234C185.437 90.7193 184.539 89.2123 184.539 87.7053V8.13761C184.539 5.72647 186.635 3.61671 189.03 3.61671H210.283C211.181 3.61671 211.779 3.91811 212.378 4.52089L219.562 13.8641C220.161 14.7683 221.059 15.0696 221.957 15.0696H239.319C239.917 15.0696 240.516 14.4669 240.516 13.8641C240.516 13.2613 239.917 12.6585 239.319 12.6585H221.358L213.875 3.31532C212.977 2.10975 211.48 1.50696 209.983 1.50696H189.03V1.20557Z" fill="#05093B"/>
<path d="M124.825 285.982H94.5917C93.6937 285.982 92.7957 285.078 92.7957 284.174C92.7957 283.27 93.6937 282.365 94.5917 282.365H124.825C125.723 282.365 126.621 283.27 126.621 284.174C126.621 285.078 125.723 285.982 124.825 285.982Z" fill="#05093B"/>
<path d="M124.825 286.886H94.592C93.0953 286.886 91.8979 285.681 91.8979 284.174C91.8979 282.667 93.0953 281.461 94.592 281.461H124.825C126.322 281.461 127.519 282.667 127.519 284.174C127.22 285.681 126.023 286.886 124.825 286.886ZM94.592 282.968C93.9933 282.968 93.3947 283.571 93.3947 284.174C93.3947 284.777 93.9933 285.379 94.592 285.379H124.825C125.424 285.379 126.023 284.777 126.023 284.174C126.023 283.571 125.424 282.968 124.825 282.968H94.592Z" fill="#05093B"/>
<path d="M124.825 295.627H109.858C108.96 295.627 108.062 294.723 108.062 293.818C108.062 292.914 108.96 292.01 109.858 292.01H124.825C125.723 292.01 126.621 292.914 126.621 293.818C126.621 294.723 125.723 295.627 124.825 295.627Z" fill="#05093B"/>
<path d="M124.825 296.229H109.858C108.361 296.229 107.164 295.024 107.164 293.517C107.164 292.01 108.361 290.804 109.858 290.804H124.825C126.322 290.804 127.519 292.01 127.519 293.517C127.519 295.024 126.022 296.229 124.825 296.229ZM109.559 292.613C108.96 292.613 108.361 293.216 108.361 293.818C108.361 294.421 108.96 295.024 109.559 295.024H124.526C125.124 295.024 125.723 294.421 125.723 293.818C125.723 293.216 125.124 292.613 124.526 292.613H109.559Z" fill="#05093B"/>
<path d="M19.7566 272.419C18.5593 272.419 17.3619 273.324 17.0625 274.529L5.6876 330.287C5.6876 330.89 5.6876 331.794 6.28628 332.397C6.88497 332.999 7.48365 333.301 8.08233 333.301H92.7957C96.0885 333.301 98.7826 330.89 99.3812 327.876L110.158 275.735C110.457 274.831 110.158 274.228 109.559 273.625C108.96 273.022 108.361 272.721 107.463 272.721H19.7566V272.419ZM92.7957 336.918H8.08233C6.28628 336.918 4.49024 336.013 3.29288 334.506C2.09551 332.999 1.79617 331.191 2.09551 329.383L13.4705 273.625C14.0691 270.611 16.7632 268.501 19.7566 268.501H107.463C109.259 268.501 111.355 269.406 112.552 270.913C113.75 272.419 114.348 274.228 113.75 276.338L102.973 328.479C102.075 333.301 97.8845 336.918 92.7957 336.918Z" fill="#05093B"/>
<path d="M92.7956 337.52H8.08221C5.98683 337.52 4.19078 336.616 2.69408 335.109C1.49672 333.602 0.898035 331.492 1.19738 329.383L12.5723 273.625C13.171 270.31 16.1644 267.899 19.4572 267.899H107.164C109.259 267.899 111.355 268.803 112.851 270.611C114.348 272.419 114.647 274.529 114.348 276.639L103.572 328.78C102.674 333.602 98.1838 337.52 92.7956 337.52ZM19.7565 269.104C17.0624 269.104 14.6677 270.912 14.3684 273.625L2.99342 329.383C2.69408 330.89 2.99342 332.698 4.19078 333.904C5.0888 335.109 6.88485 336.013 8.38155 336.013H93.095C97.8844 336.013 101.776 332.698 102.674 328.177L113.45 276.036C113.749 274.529 113.45 272.721 112.253 271.214C111.055 270.008 109.559 269.104 107.763 269.104H19.7565ZM92.7956 333.904H8.08221C7.18419 333.904 6.28617 333.602 5.68749 332.698C5.0888 332.095 4.78946 330.89 5.0888 329.986L16.4638 274.228C16.7631 272.721 18.2598 271.515 19.7565 271.515H107.463C108.361 271.515 109.559 272.118 110.157 272.721C110.756 273.625 111.055 274.529 110.756 275.433L99.9798 327.574C99.3811 331.191 96.3877 333.904 92.7956 333.904ZM19.7565 273.022C18.8585 273.022 17.9605 273.625 17.9605 274.529L6.58551 330.287C6.58551 330.89 6.58551 331.191 6.88485 331.794C7.18419 332.095 7.78287 332.397 8.08221 332.397H92.7956C95.789 332.397 98.1838 330.287 98.7824 327.574L109.559 275.433C109.559 274.831 109.559 274.228 109.259 273.926C108.96 273.625 108.361 273.324 107.763 273.324H19.7565V273.022Z" fill="#05093B"/>
<path d="M91.8978 272.419C90.9998 272.419 90.4011 271.817 90.1018 271.214L81.7202 248.308C81.4209 247.705 81.1215 247.404 80.8222 247.102C80.5229 246.801 79.9242 246.801 79.3255 247.102L29.9343 272.419C29.0363 273.022 27.8389 272.419 27.5396 271.515C26.9409 270.611 27.5396 269.406 28.4376 269.104L77.8288 243.787C77.8288 243.787 77.8288 243.787 78.1281 243.787C79.6248 243.184 81.1215 243.184 82.3189 244.089C83.8156 244.691 84.7136 245.897 85.3123 247.404L93.6939 270.31C93.9932 271.214 93.6939 272.419 92.4965 272.721C92.1971 272.118 92.1971 272.419 91.8978 272.419Z" fill="#05093B"/>
<path d="M91.8981 273.022C90.7007 273.022 89.8027 272.419 89.5034 271.214L81.1218 248.308C81.1218 248.007 80.8225 247.705 80.5231 247.705C80.2238 247.705 79.9245 247.705 79.6251 247.705L30.5333 272.721C29.9346 273.022 29.3359 273.022 28.4379 273.022C27.8392 272.721 27.2405 272.419 26.9412 271.817C26.3425 270.611 26.9412 268.803 28.1385 268.2L77.5297 242.883H77.8291C79.3258 242.28 81.1218 242.28 82.6185 243.184C84.1152 243.787 85.3126 245.294 85.9113 246.801L94.2928 269.707C94.5922 270.31 94.5922 271.214 94.2928 271.817C93.9935 272.419 93.3948 273.022 92.7961 273.324C92.4968 273.022 92.1974 273.022 91.8981 273.022ZM79.9245 246.198C80.2238 246.198 80.5231 246.198 81.1218 246.5C81.7205 246.801 82.3192 247.404 82.6185 248.007L91.0001 270.912C91.2994 271.515 91.8981 271.817 92.4968 271.515C93.0954 271.214 93.3948 270.611 93.0954 270.008L84.7139 247.102C84.1152 245.897 83.2172 244.993 82.0198 244.39C80.8225 243.787 79.6251 243.787 78.1284 244.088L28.7372 269.406C28.1385 269.707 27.8392 270.31 28.1385 270.912C28.1385 271.214 28.4379 271.515 28.7372 271.515C29.0365 271.515 29.3359 271.515 29.6352 271.515L79.0264 246.198C79.3258 246.198 79.6251 246.198 79.9245 246.198Z" fill="#05093B"/>
<path d="M99.0815 272.419H91.8973C90.9993 272.419 90.1013 271.515 90.1013 270.611C90.1013 269.707 90.9993 268.803 91.8973 268.803H97.2854V261.268C97.2854 259.158 95.4894 257.35 93.394 257.35H86.5092C85.6112 257.35 84.7131 256.446 84.7131 255.541C84.7131 254.637 85.6112 253.733 86.5092 253.733H93.394C97.5848 253.733 100.878 257.048 100.878 261.268V270.611C100.878 271.515 99.9795 272.419 99.0815 272.419Z" fill="#05093B"/>
<path d="M99.0818 273.022H91.8976C90.4009 273.022 89.2036 271.817 89.2036 270.31C89.2036 268.803 90.4009 267.597 91.8976 267.597H96.3877V260.665C96.3877 258.857 94.891 257.651 93.3943 257.651H86.5095C85.0128 257.651 83.8154 256.446 83.8154 254.939C83.8154 253.432 85.0128 252.226 86.5095 252.226H93.3943C97.8844 252.226 101.776 255.843 101.776 260.665V270.008C101.477 271.817 100.579 273.022 99.0818 273.022ZM91.8976 269.104C91.2989 269.104 90.7003 269.707 90.7003 270.31C90.7003 270.912 91.2989 271.515 91.8976 271.515H99.0818C99.6805 271.515 100.279 270.912 100.279 270.31V260.967C100.279 257.35 97.2858 254.034 93.3943 254.034H86.5095C85.9108 254.034 85.3121 254.637 85.3121 255.24C85.3121 255.843 85.9108 256.446 86.5095 256.446H93.3943C95.7891 256.446 97.8844 258.555 97.8844 260.967V269.406H91.8976V269.104Z" fill="#05093B"/>
<path d="M5.38782 336.013C5.08847 336.013 4.78913 336.013 4.48979 335.712C2.39441 334.205 0.897705 331.794 0.897705 329.383V249.815C0.897705 245.595 4.19045 242.28 8.38122 242.28H29.6344C31.4305 242.28 32.9272 243.184 34.1245 244.39L41.3087 253.432H58.6705C59.5685 253.432 60.4665 254.336 60.4665 255.24C60.4665 256.144 59.5685 257.048 58.6705 257.048H41.3087C40.1113 257.048 38.914 256.446 38.3153 255.541L31.1311 246.198C30.8318 245.897 30.2331 245.595 29.6344 245.595H8.38122C6.28584 245.595 4.48979 247.404 4.48979 249.514V329.081C4.48979 330.287 5.08847 331.492 6.28584 332.397C7.18386 332.999 7.4832 334.205 6.88452 335.109C6.88452 335.712 6.28584 336.013 5.38782 336.013Z" fill="#05093B"/>
<path d="M5.38813 336.616C4.78945 336.616 4.49011 336.616 3.89143 336.315C1.4967 334.808 0 332.095 0 329.383V249.815C0 245.294 3.59209 241.376 8.38154 241.376H29.6347C31.7301 241.376 33.5262 242.28 34.7235 243.787L41.9077 252.829H58.9701C60.4668 252.829 61.6642 254.034 61.6642 255.541C61.6642 257.048 60.4668 258.254 58.9701 258.254H41.6084C40.1116 258.254 38.9143 257.651 38.0163 256.446L30.8321 247.102C30.5327 246.801 30.2334 246.801 29.9341 246.801H8.68088C6.88483 246.801 5.68747 248.308 5.68747 249.815V329.383C5.68747 330.287 6.28615 331.492 7.18418 331.794C8.38154 332.698 8.68088 334.205 8.0822 335.411C7.18418 336.315 6.28615 336.616 5.38813 336.616ZM8.68088 242.582C4.78945 242.582 1.79604 245.595 1.79604 249.514V329.081C1.79604 331.492 2.99341 333.602 5.08879 334.808C5.68747 335.109 6.28615 335.109 6.58549 334.506C6.88483 333.904 6.88483 333.301 6.28615 332.999C5.08879 332.095 4.19077 330.588 4.19077 329.081V249.514C4.19077 247.102 6.28615 244.993 8.68088 244.993H29.9341C30.8321 244.993 31.4308 245.294 32.0294 245.897L39.2136 255.24C39.8123 256.144 40.7103 256.446 41.6084 256.446H58.9701C59.5688 256.446 60.1675 255.843 60.1675 255.24C60.1675 254.637 59.5688 254.034 58.9701 254.034H41.0097L33.5262 244.691C32.6281 243.486 31.1314 242.883 29.6347 242.883H8.68088V242.582Z" fill="#05093B"/>
<path d="M296.065 288.715H265.832C264.934 288.715 264.036 287.81 264.036 286.906C264.036 286.002 264.934 285.098 265.832 285.098H296.065C296.963 285.098 297.861 286.002 297.861 286.906C297.861 287.81 296.963 288.715 296.065 288.715Z" fill="#05093B"/>
<path d="M296.066 289.619H265.832C264.336 289.619 263.138 288.413 263.138 286.906C263.138 285.399 264.336 284.194 265.832 284.194H296.066C297.562 284.194 298.76 285.399 298.76 286.906C298.46 288.413 297.263 289.619 296.066 289.619ZM265.832 285.701C265.234 285.701 264.635 286.304 264.635 286.906C264.635 287.509 265.234 288.112 265.832 288.112H296.066C296.664 288.112 297.263 287.509 297.263 286.906C297.263 286.304 296.664 285.701 296.066 285.701H265.832Z" fill="#05093B"/>
<path d="M296.065 298.359H281.098C280.2 298.359 279.302 297.455 279.302 296.551C279.302 295.647 280.2 294.743 281.098 294.743H296.065C296.963 294.743 297.861 295.647 297.861 296.551C297.861 297.455 296.963 298.359 296.065 298.359Z" fill="#05093B"/>
<path d="M296.065 298.962H281.098C279.601 298.962 278.404 297.756 278.404 296.249C278.404 294.743 279.601 293.537 281.098 293.537H296.065C297.562 293.537 298.759 294.743 298.759 296.249C298.759 297.756 297.262 298.962 296.065 298.962ZM280.799 295.345C280.2 295.345 279.601 295.948 279.601 296.551C279.601 297.154 280.2 297.756 280.799 297.756H295.766C296.364 297.756 296.963 297.154 296.963 296.551C296.963 295.948 296.364 295.345 295.766 295.345H280.799Z" fill="#05093B"/>
<path d="M190.997 275.152C189.8 275.152 188.602 276.056 188.303 277.262L176.928 333.019C176.928 333.622 176.928 334.526 177.527 335.129C178.125 335.732 178.724 336.033 179.323 336.033H264.036C267.329 336.033 270.023 333.622 270.622 330.608L281.398 278.467C281.697 277.563 281.398 276.96 280.799 276.358C280.201 275.755 279.602 275.453 278.704 275.453H190.997V275.152ZM264.036 339.65H179.323C177.527 339.65 175.731 338.746 174.533 337.239C173.336 335.732 173.037 333.924 173.336 332.115L184.711 276.358C185.31 273.344 188.004 271.234 190.997 271.234H278.704C280.5 271.234 282.595 272.138 283.793 273.645C284.99 275.152 285.589 276.96 284.99 279.07L274.214 331.211C273.316 336.033 269.125 339.65 264.036 339.65Z" fill="#05093B"/>
<path d="M264.036 340.253H179.322C177.227 340.253 175.431 339.349 173.934 337.842C172.737 336.335 172.138 334.225 172.438 332.115L183.813 276.358C184.411 273.042 187.405 270.631 190.697 270.631H278.404C280.5 270.631 282.595 271.535 284.092 273.344C285.588 275.152 285.888 277.262 285.588 279.372L274.812 331.512C273.914 336.335 269.424 340.253 264.036 340.253ZM190.997 271.837C188.303 271.837 185.908 273.645 185.609 276.358L174.234 332.115C173.934 333.622 174.234 335.431 175.431 336.636C176.329 337.842 178.125 338.746 179.622 338.746H264.335C269.125 338.746 273.016 335.431 273.914 330.91L284.69 278.769C284.99 277.262 284.69 275.453 283.493 273.946C282.296 272.741 280.799 271.837 279.003 271.837H190.997ZM264.036 336.636H179.322C178.424 336.636 177.526 336.335 176.928 335.431C176.329 334.828 176.03 333.622 176.329 332.718L187.704 276.96C188.003 275.453 189.5 274.248 190.997 274.248H278.704C279.602 274.248 280.799 274.851 281.398 275.453C281.996 276.358 282.296 277.262 281.996 278.166L271.22 330.307C270.621 333.924 267.628 336.636 264.036 336.636ZM190.997 275.755C190.099 275.755 189.201 276.358 189.201 277.262L177.826 333.019C177.826 333.622 177.826 333.924 178.125 334.526C178.424 334.828 179.023 335.129 179.322 335.129H264.036C267.029 335.129 269.424 333.019 270.023 330.307L280.799 278.166C280.799 277.563 280.799 276.96 280.5 276.659C280.2 276.358 279.602 276.056 279.003 276.056H190.997V275.755Z" fill="#05093B"/>
<path d="M263.138 275.152C262.24 275.152 261.642 274.549 261.342 273.946L252.961 251.041C252.661 250.438 252.362 250.136 252.063 249.835C251.763 249.534 251.165 249.534 250.566 249.835L201.175 275.152C200.277 275.755 199.079 275.152 198.78 274.248C198.181 273.344 198.78 272.138 199.678 271.837L249.069 246.52C249.069 246.52 249.069 246.52 249.369 246.52C250.865 245.917 252.362 245.917 253.559 246.821C255.056 247.424 255.954 248.629 256.553 250.136L264.934 273.042C265.234 273.946 264.934 275.152 263.737 275.453C263.438 274.851 263.438 275.152 263.138 275.152Z" fill="#05093B"/>
<path d="M263.139 275.755C261.941 275.755 261.043 275.152 260.744 273.946L252.362 251.041C252.362 250.739 252.063 250.438 251.764 250.438C251.464 250.438 251.165 250.438 250.866 250.438L201.774 275.453C201.175 275.755 200.576 275.755 199.678 275.755C199.08 275.453 198.481 275.152 198.182 274.549C197.583 273.344 198.182 271.535 199.379 270.932L248.77 245.615H249.07C250.566 245.013 252.362 245.013 253.859 245.917C255.356 246.52 256.553 248.027 257.152 249.534L265.533 272.439C265.833 273.042 265.833 273.946 265.533 274.549C265.234 275.152 264.635 275.755 264.037 276.056C263.737 275.755 263.438 275.755 263.139 275.755ZM251.165 248.931C251.464 248.931 251.764 248.931 252.362 249.232C252.961 249.534 253.56 250.136 253.859 250.739L262.241 273.645C262.54 274.248 263.139 274.549 263.737 274.248C264.336 273.946 264.635 273.344 264.336 272.741L255.954 249.835C255.356 248.629 254.458 247.725 253.26 247.122C252.063 246.52 250.866 246.52 249.369 246.821L199.978 272.138C199.379 272.439 199.08 273.042 199.379 273.645C199.379 273.946 199.678 274.248 199.978 274.248C200.277 274.248 200.576 274.248 200.876 274.248L250.267 248.931C250.566 248.931 250.866 248.931 251.165 248.931Z" fill="#05093B"/>
<path d="M270.322 275.152H263.138C262.24 275.152 261.342 274.248 261.342 273.344C261.342 272.439 262.24 271.535 263.138 271.535H268.526V264C268.526 261.891 266.73 260.082 264.634 260.082H257.75C256.852 260.082 255.954 259.178 255.954 258.274C255.954 257.37 256.852 256.466 257.75 256.466H264.634C268.825 256.466 272.118 259.781 272.118 264V273.344C272.118 274.248 271.22 275.152 270.322 275.152Z" fill="#05093B"/>
<path d="M270.322 275.755H263.138C261.641 275.755 260.444 274.549 260.444 273.042C260.444 271.535 261.641 270.33 263.138 270.33H267.628V263.398C267.628 261.589 266.131 260.384 264.635 260.384H257.75C256.253 260.384 255.056 259.178 255.056 257.671C255.056 256.164 256.253 254.959 257.75 254.959H264.635C269.125 254.959 273.016 258.575 273.016 263.398V272.741C272.717 274.549 271.819 275.755 270.322 275.755ZM263.138 271.837C262.539 271.837 261.94 272.439 261.94 273.042C261.94 273.645 262.539 274.248 263.138 274.248H270.322C270.921 274.248 271.519 273.645 271.519 273.042V263.699C271.519 260.082 268.526 256.767 264.635 256.767H257.75C257.151 256.767 256.552 257.37 256.552 257.973C256.552 258.575 257.151 259.178 257.75 259.178H264.635C267.029 259.178 269.125 261.288 269.125 263.699V272.138H263.138V271.837Z" fill="#05093B"/>
<path d="M176.628 338.746C176.328 338.746 176.029 338.746 175.73 338.445C173.634 336.938 172.138 334.526 172.138 332.115V252.548C172.138 248.328 175.43 245.013 179.621 245.013H200.874C202.67 245.013 204.167 245.917 205.365 247.122L212.549 256.164H229.91C230.808 256.164 231.706 257.068 231.706 257.973C231.706 258.877 230.808 259.781 229.91 259.781H212.549C211.351 259.781 210.154 259.178 209.555 258.274L202.371 248.931C202.072 248.629 201.473 248.328 200.874 248.328H179.621C177.526 248.328 175.73 250.136 175.73 252.246V331.814C175.73 333.019 176.328 334.225 177.526 335.129C178.424 335.732 178.723 336.938 178.125 337.842C178.125 338.445 177.526 338.746 176.628 338.746Z" fill="#05093B"/>
<path d="M176.628 339.349C176.03 339.349 175.73 339.349 175.132 339.047C172.737 337.54 171.24 334.828 171.24 332.115V252.548C171.24 248.027 174.832 244.109 179.622 244.109H200.875C202.97 244.109 204.766 245.013 205.964 246.52L213.148 255.561H230.21C231.707 255.561 232.904 256.767 232.904 258.274C232.904 259.781 231.707 260.987 230.21 260.987H212.849C211.352 260.987 210.155 260.384 209.256 259.178L202.072 249.835C201.773 249.534 201.474 249.534 201.174 249.534H179.921C178.125 249.534 176.928 251.041 176.928 252.548V332.115C176.928 333.019 177.526 334.225 178.424 334.526C179.622 335.431 179.921 336.938 179.322 338.143C178.424 339.047 177.526 339.349 176.628 339.349ZM179.921 245.314C176.03 245.314 173.036 248.328 173.036 252.246V331.814C173.036 334.225 174.234 336.335 176.329 337.54C176.928 337.842 177.526 337.842 177.826 337.239C178.125 336.636 178.125 336.033 177.526 335.732C176.329 334.828 175.431 333.321 175.431 331.814V252.246C175.431 249.835 177.526 247.725 179.921 247.725H201.174C202.072 247.725 202.671 248.027 203.27 248.629L210.454 257.973C211.053 258.877 211.951 259.178 212.849 259.178H230.21C230.809 259.178 231.408 258.575 231.408 257.973C231.408 257.37 230.809 256.767 230.21 256.767H212.25L204.766 247.424C203.868 246.218 202.372 245.615 200.875 245.615H179.921V245.314Z" fill="#05093B"/>
<path d="M467.305 290.536H437.072C436.174 290.536 435.276 289.632 435.276 288.728C435.276 287.824 436.174 286.92 437.072 286.92H467.305C468.203 286.92 469.101 287.824 469.101 288.728C469.101 289.632 468.203 290.536 467.305 290.536Z" fill="#05093B"/>
<path d="M467.306 291.441H437.072C435.576 291.441 434.378 290.235 434.378 288.728C434.378 287.221 435.576 286.016 437.072 286.016H467.306C468.803 286.016 470 287.221 470 288.728C469.701 290.235 468.503 291.441 467.306 291.441ZM437.072 287.523C436.474 287.523 435.875 288.125 435.875 288.728C435.875 289.331 436.474 289.934 437.072 289.934H467.306C467.905 289.934 468.503 289.331 468.503 288.728C468.503 288.125 467.905 287.523 467.306 287.523H437.072Z" fill="#05093B"/>
<path d="M467.305 300.181H452.338C451.44 300.181 450.542 299.277 450.542 298.373C450.542 297.469 451.44 296.564 452.338 296.564H467.305C468.203 296.564 469.101 297.469 469.101 298.373C469.101 299.277 468.203 300.181 467.305 300.181Z" fill="#05093B"/>
<path d="M467.305 300.784H452.338C450.841 300.784 449.644 299.578 449.644 298.071C449.644 296.564 450.841 295.359 452.338 295.359H467.305C468.802 295.359 469.999 296.564 469.999 298.071C469.999 299.578 468.503 300.784 467.305 300.784ZM452.039 297.167C451.44 297.167 450.841 297.77 450.841 298.373C450.841 298.975 451.44 299.578 452.039 299.578H467.006C467.604 299.578 468.203 298.975 468.203 298.373C468.203 297.77 467.604 297.167 467.006 297.167H452.039Z" fill="#05093B"/>
<path d="M362.237 276.974C361.04 276.974 359.843 277.878 359.543 279.084L348.168 334.841C348.168 335.444 348.168 336.348 348.767 336.951C349.366 337.554 349.964 337.855 350.563 337.855H435.276C438.569 337.855 441.263 335.444 441.862 332.43L452.638 280.289C452.938 279.385 452.638 278.782 452.04 278.179C451.441 277.577 450.842 277.275 449.944 277.275H362.237V276.974ZM435.276 341.472H350.563C348.767 341.472 346.971 340.568 345.774 339.061C344.576 337.554 344.277 335.745 344.576 333.937L355.951 278.179C356.55 275.165 359.244 273.056 362.237 273.056H449.944C451.74 273.056 453.836 273.96 455.033 275.467C456.23 276.974 456.829 278.782 456.23 280.892L445.454 333.033C444.556 337.855 440.365 341.472 435.276 341.472Z" fill="#05093B"/>
<path d="M435.276 342.075H350.563C348.467 342.075 346.671 341.17 345.175 339.663C343.977 338.156 343.379 336.047 343.678 333.937L355.053 278.179C355.651 274.864 358.645 272.453 361.938 272.453H449.644C451.74 272.453 453.835 273.357 455.332 275.165C456.829 276.974 457.128 279.083 456.829 281.193L446.052 333.334C445.154 338.156 440.664 342.075 435.276 342.075ZM362.237 273.658C359.543 273.658 357.148 275.467 356.849 278.179L345.474 333.937C345.175 335.444 345.474 337.252 346.671 338.458C347.569 339.663 349.365 340.568 350.862 340.568H435.575C440.365 340.568 444.256 337.252 445.154 332.731L455.931 280.59C456.23 279.083 455.931 277.275 454.733 275.768C453.536 274.563 452.039 273.658 450.243 273.658H362.237ZM435.276 338.458H350.563C349.665 338.458 348.767 338.157 348.168 337.252C347.569 336.65 347.27 335.444 347.569 334.54L358.944 278.782C359.244 277.275 360.74 276.07 362.237 276.07H449.944C450.842 276.07 452.039 276.672 452.638 277.275C453.237 278.179 453.536 279.083 453.237 279.988L442.46 332.129C441.862 335.745 438.868 338.458 435.276 338.458ZM362.237 277.577C361.339 277.577 360.441 278.179 360.441 279.083L349.066 334.841C349.066 335.444 349.066 335.745 349.365 336.348C349.665 336.65 350.263 336.951 350.563 336.951H435.276C438.27 336.951 440.664 334.841 441.263 332.129L452.039 279.988C452.039 279.385 452.039 278.782 451.74 278.481C451.44 278.179 450.842 277.878 450.243 277.878H362.237V277.577Z" fill="#05093B"/>
<path d="M434.379 276.974C433.48 276.974 432.882 276.371 432.582 275.768L424.201 252.862C423.902 252.259 423.602 251.958 423.303 251.657C423.004 251.355 422.405 251.355 421.806 251.657L372.415 276.974C371.517 277.576 370.32 276.974 370.02 276.07C369.422 275.165 370.02 273.96 370.918 273.658L420.31 248.341C420.31 248.341 420.31 248.341 420.609 248.341C422.106 247.739 423.602 247.739 424.8 248.643C426.296 249.246 427.194 250.451 427.793 251.958L436.175 274.864C436.474 275.768 436.175 276.974 434.977 277.275C434.678 276.672 434.678 276.974 434.379 276.974Z" fill="#05093B"/>
<path d="M434.379 277.576C433.181 277.576 432.283 276.974 431.984 275.768L423.603 252.862C423.603 252.561 423.303 252.259 423.004 252.259C422.705 252.259 422.405 252.259 422.106 252.259L373.014 277.275C372.415 277.576 371.817 277.576 370.919 277.576C370.32 277.275 369.721 276.974 369.422 276.371C368.823 275.165 369.422 273.357 370.619 272.754L420.01 247.437H420.31C421.806 246.834 423.603 246.834 425.099 247.739C426.596 248.341 427.793 249.848 428.392 251.355L436.774 274.261C437.073 274.864 437.073 275.768 436.774 276.371C436.474 276.974 435.876 277.576 435.277 277.878C434.977 277.576 434.678 277.576 434.379 277.576ZM422.405 250.753C422.705 250.753 423.004 250.753 423.603 251.054C424.201 251.355 424.8 251.958 425.099 252.561L433.481 275.467C433.78 276.07 434.379 276.371 434.977 276.07C435.576 275.768 435.876 275.165 435.576 274.563L427.195 251.657C426.596 250.451 425.698 249.547 424.501 248.944C423.303 248.341 422.106 248.341 420.609 248.643L371.218 273.96C370.619 274.261 370.32 274.864 370.619 275.467C370.619 275.768 370.919 276.07 371.218 276.07C371.517 276.07 371.817 276.07 372.116 276.07L421.507 250.753C421.806 250.753 422.106 250.753 422.405 250.753Z" fill="#05093B"/>
<path d="M441.562 276.974H434.378C433.48 276.974 432.582 276.069 432.582 275.165C432.582 274.261 433.48 273.357 434.378 273.357H439.766V265.822C439.766 263.712 437.97 261.904 435.875 261.904H428.99C428.092 261.904 427.194 261 427.194 260.096C427.194 259.191 428.092 258.287 428.99 258.287H435.875C440.065 258.287 443.358 261.603 443.358 265.822V275.165C443.358 276.069 442.46 276.974 441.562 276.974Z" fill="#05093B"/>
<path d="M441.562 277.577H434.378C432.881 277.577 431.684 276.371 431.684 274.864C431.684 273.357 432.881 272.151 434.378 272.151H438.868V265.219C438.868 263.411 437.372 262.205 435.875 262.205H428.99C427.493 262.205 426.296 261 426.296 259.493C426.296 257.986 427.493 256.78 428.99 256.78H435.875C440.365 256.78 444.256 260.397 444.256 265.219V274.563C443.957 276.371 443.059 277.577 441.562 277.577ZM434.378 273.658C433.779 273.658 433.181 274.261 433.181 274.864C433.181 275.467 433.779 276.07 434.378 276.07H441.562C442.161 276.07 442.76 275.467 442.76 274.864V265.521C442.76 261.904 439.766 258.589 435.875 258.589H428.99C428.391 258.589 427.793 259.192 427.793 259.794C427.793 260.397 428.391 261 428.99 261H435.875C438.27 261 440.365 263.11 440.365 265.521V273.96H434.378V273.658Z" fill="#05093B"/>
<path d="M347.868 340.568C347.569 340.568 347.269 340.568 346.97 340.266C344.875 338.759 343.378 336.348 343.378 333.937V254.369C343.378 250.15 346.671 246.834 350.861 246.834H372.115C373.911 246.834 375.407 247.739 376.605 248.944L383.789 257.986H401.151C402.049 257.986 402.947 258.89 402.947 259.794C402.947 260.698 402.049 261.603 401.151 261.603H383.789C382.592 261.603 381.394 261 380.796 260.096L373.611 250.753C373.312 250.451 372.713 250.15 372.115 250.15H350.861C348.766 250.15 346.97 251.958 346.97 254.068V333.636C346.97 334.841 347.569 336.047 348.766 336.951C349.664 337.554 349.963 338.759 349.365 339.663C349.365 340.266 348.766 340.568 347.868 340.568Z" fill="#05093B"/>
<path d="M347.869 341.17C347.27 341.17 346.971 341.17 346.372 340.869C343.977 339.362 342.48 336.65 342.48 333.937V254.369C342.48 249.848 346.073 245.93 350.862 245.93H372.115C374.211 245.93 376.007 246.834 377.204 248.341L384.388 257.383H401.451C402.947 257.383 404.145 258.589 404.145 260.096C404.145 261.603 402.947 262.808 401.451 262.808H384.089C382.592 262.808 381.395 262.205 380.497 261L373.313 251.657C373.013 251.355 372.714 251.355 372.415 251.355H351.161C349.365 251.355 348.168 252.862 348.168 254.369V333.937C348.168 334.841 348.767 336.047 349.665 336.348C350.862 337.252 351.161 338.759 350.563 339.965C349.665 340.869 348.767 341.17 347.869 341.17ZM351.161 247.136C347.27 247.136 344.277 250.15 344.277 254.068V333.636C344.277 336.047 345.474 338.156 347.569 339.362C348.168 339.663 348.767 339.663 349.066 339.061C349.365 338.458 349.365 337.855 348.767 337.554C347.569 336.65 346.671 335.143 346.671 333.636V254.068C346.671 251.657 348.767 249.547 351.161 249.547H372.415C373.313 249.547 373.911 249.848 374.51 250.451L381.694 259.794C382.293 260.698 383.191 261 384.089 261H401.451C402.049 261 402.648 260.397 402.648 259.794C402.648 259.192 402.049 258.589 401.451 258.589H383.49L376.007 249.246C375.109 248.04 373.612 247.437 372.115 247.437H351.161V247.136Z" fill="#05093B"/>
<rect x="232" y="102.52" width="7" height="71" fill="#05093B"/>
<rect x="403.552" y="172.776" width="7.24302" height="351.605" transform="rotate(90.2502 403.552 172.776)" fill="#05093B"/>
<rect x="52" y="177.52" width="6" height="61" fill="#05093B"/>
<rect x="232" y="170.52" width="7" height="61" fill="#05093B"/>
<rect x="396" y="173.52" width="7" height="61" fill="#05093B"/>
</svg>
