<svg width="126" height="128" viewBox="0 0 126 128" fill="none" xmlns="http://www.w3.org/2000/svg">
<path d="M119.094 83.2L124.598 99.84L121.211 101.12L118.248 91.3067C115.284 98.1333 111.051 104.107 105.971 109.227C94.1177 121.173 78.031 128 61.0977 128C44.1644 128 28.0777 121.173 16.2244 109.227C11.5677 104.96 8.18104 99.84 5.21771 94.72L9.02771 92.5867C11.5677 97.7067 14.9544 101.973 19.1877 106.24C30.1944 117.333 45.4344 123.733 61.0977 123.733C77.1844 123.733 92.001 117.76 103.008 106.24C107.664 101.547 111.474 96.4267 114.438 90.4533L106.394 94.2933L104.278 90.0267L119.094 83.2ZM61.0977 0C78.031 0 94.1177 6.82667 106.394 19.2C111.051 23.8933 114.861 29.44 118.248 35.84L114.438 37.5467C111.474 31.5733 107.664 26.4533 103.008 21.76C92.001 10.6667 76.761 4.26667 61.0977 4.26667C45.4344 4.26667 30.6177 10.24 19.611 21.3333C15.801 25.1733 12.8377 29.0133 10.2977 33.28L20.0344 30.2933L21.3044 34.1333L4.79437 38.8267L0.984375 22.1867L4.79437 21.3333L6.91104 30.72C9.45104 26.4533 12.8377 22.1867 16.2244 18.7733C28.0777 6.82667 44.1644 0 61.0977 0Z" fill="#05093B" stroke="#05093B"/>
<path d="M42.5868 53.0286H39.0844V38.4H53.4126V41.7524H42.5868V53.0286Z" fill="#05093B" stroke="#05093B" stroke-width="2.13333"/>
<path d="M85.651 89.6H71.3228V86.2476H82.0689V74.9714H85.651V89.6Z" fill="#05093B" stroke="#05093B" stroke-width="2.13333"/>
<path d="M53.4126 89.6H39.0844V74.9714H42.5868V86.2476H53.4126V89.6Z" fill="#05093B" stroke="#05093B" stroke-width="2.13333"/>
<path d="M85.651 53.0286H82.2976V41.9759H71.3228V38.4H85.651V53.0286Z" fill="#05093B" stroke="#05093B" stroke-width="2.13333"/>
</svg>
