<svg width="121" height="120" viewBox="0 0 121 120" fill="none" xmlns="http://www.w3.org/2000/svg">
<path d="M94.2344 25H25.7734V97H94.2344V25Z" fill="white"/>
<path d="M60.5 0C27.6218 0 0.96875 26.8629 0.96875 60C0.96875 93.1371 27.6218 120 60.5 120C93.3782 120 120.031 93.1371 120.031 60C119.994 26.8784 93.3629 0.0372741 60.5 0ZM89.4728 85.3445C90.1762 86.0293 90.4583 87.0433 90.2107 87.9968C89.963 88.9504 89.2242 89.695 88.2781 89.9446C87.332 90.1942 86.3259 89.9099 85.6465 89.2009L60.5 63.8566L35.3535 89.2009C34.2917 90.2345 32.604 90.2197 31.5602 89.1677C30.5164 88.1157 30.5017 86.4147 31.5272 85.3445L56.6735 60L31.5272 34.6555C30.5017 33.5853 30.5164 31.8843 31.5602 30.8323C32.604 29.7803 34.2917 29.7655 35.3535 30.7991L60.5 56.1434L85.6465 30.7991C86.7083 29.7655 88.396 29.7803 89.4398 30.8323C90.4836 31.8843 90.4983 33.5853 89.4728 34.6555L64.3265 60L89.4728 85.3445Z" fill="#05093B"/>
</svg>
