<svg width="34" height="34" viewBox="0 0 34 34" fill="none" xmlns="http://www.w3.org/2000/svg">
<mask id="path-1-inside-1" fill="white">
<path d="M33.745 9.7627L23.9823 0L0 23.9993L9.7627 33.7619L33.745 9.7627ZM23.9823 1.20973L32.5437 9.7627L28.0529 14.2535L24.4492 10.6498L23.8507 11.2483L27.4544 14.852L24.7548 17.5516L22.3481 15.1534L21.7496 15.7519L24.1521 18.1544L21.3591 20.9474L17.7554 17.3479L17.1569 17.9464L20.7563 21.5501L18.1459 24.1606L15.7434 21.7581L15.1449 22.3566L17.5474 24.759L14.8478 27.4586L11.2441 23.8549L10.6456 24.4534L14.2493 28.0571L9.75421 32.5522L1.20124 23.9993L23.9823 1.20973Z"/>
</mask>
<path d="M33.745 9.7627L23.9823 0L0 23.9993L9.7627 33.7619L33.745 9.7627ZM23.9823 1.20973L32.5437 9.7627L28.0529 14.2535L24.4492 10.6498L23.8507 11.2483L27.4544 14.852L24.7548 17.5516L22.3481 15.1534L21.7496 15.7519L24.1521 18.1544L21.3591 20.9474L17.7554 17.3479L17.1569 17.9464L20.7563 21.5501L18.1459 24.1606L15.7434 21.7581L15.1449 22.3566L17.5474 24.759L14.8478 27.4586L11.2441 23.8549L10.6456 24.4534L14.2493 28.0571L9.75421 32.5522L1.20124 23.9993L23.9823 1.20973Z" fill="#05093B"/>
<path d="M33.745 9.7627L34.806 10.823L35.8659 9.76232L34.8056 8.70204L33.745 9.7627ZM23.9823 0L25.0429 -1.06066L23.9819 -2.1217L22.9212 -1.06028L23.9823 0ZM0 23.9993L-1.06104 22.939L-2.12095 23.9996L-1.06066 25.0599L0 23.9993ZM9.7627 33.7619L8.70204 34.8226L9.76307 35.8836L10.8237 34.8222L9.7627 33.7619ZM23.9823 1.20973L25.0424 0.148539L23.9816 -0.911266L22.9214 0.149263L23.9823 1.20973ZM32.5437 9.7627L33.6044 10.8234L34.6656 9.76217L33.6039 8.70151L32.5437 9.7627ZM28.0529 14.2535L26.9922 15.3142L28.0529 16.3749L29.1136 15.3142L28.0529 14.2535ZM24.4492 10.6498L25.5098 9.58917L24.4492 8.52851L23.3885 9.58917L24.4492 10.6498ZM23.8507 11.2483L22.79 10.1877L21.7294 11.2483L22.79 12.309L23.8507 11.2483ZM27.4544 14.852L28.5151 15.9127L29.5757 14.852L28.5151 13.7914L27.4544 14.852ZM24.7548 17.5516L23.696 18.6142L24.7567 19.6711L25.8155 18.6123L24.7548 17.5516ZM22.3481 15.1534L23.4069 14.0909L22.3462 13.034L21.2874 14.0927L22.3481 15.1534ZM21.7496 15.7519L20.6889 14.6912L19.6283 15.7519L20.6889 16.8126L21.7496 15.7519ZM24.1521 18.1544L25.2127 19.215L26.2734 18.1544L25.2127 17.0937L24.1521 18.1544ZM21.3591 20.9474L20.299 22.0086L21.3597 23.068L22.4197 22.008L21.3591 20.9474ZM17.7554 17.3479L18.8154 16.2866L17.7548 15.2272L16.6947 16.2872L17.7554 17.3479ZM17.1569 17.9464L16.0962 16.8857L15.0362 17.9458L16.0956 19.0064L17.1569 17.9464ZM20.7563 21.5501L21.817 22.6108L22.877 21.5507L21.8176 20.4901L20.7563 21.5501ZM18.1459 24.1606L17.0852 25.2212L18.1459 26.2819L19.2065 25.2212L18.1459 24.1606ZM15.7434 21.7581L16.8041 20.6974L15.7434 19.6368L14.6827 20.6974L15.7434 21.7581ZM15.1449 22.3566L14.0843 21.2959L13.0236 22.3566L14.0843 23.4172L15.1449 22.3566ZM17.5474 24.759L18.608 25.8197L19.6687 24.759L18.608 23.6984L17.5474 24.759ZM14.8478 27.4586L13.7871 28.5193L14.8478 29.58L15.9084 28.5193L14.8478 27.4586ZM11.2441 23.8549L12.3047 22.7943L11.2441 21.7336L10.1834 22.7943L11.2441 23.8549ZM10.6456 24.4534L9.58493 23.3928L8.52426 24.4534L9.58492 25.5141L10.6456 24.4534ZM14.2493 28.0571L15.31 29.1178L16.3706 28.0571L15.31 26.9965L14.2493 28.0571ZM9.75421 32.5522L8.69355 33.6129L9.75421 34.6735L10.8149 33.6129L9.75421 32.5522ZM1.20124 23.9993L0.140378 22.9388L-0.919887 23.9995L0.140576 25.0599L1.20124 23.9993ZM34.8056 8.70204L25.0429 -1.06066L22.9216 1.06066L32.6843 10.8234L34.8056 8.70204ZM22.9212 -1.06028L-1.06104 22.939L1.06104 25.0595L25.0433 1.06028L22.9212 -1.06028ZM-1.06066 25.0599L8.70204 34.8226L10.8234 32.7013L1.06066 22.9386L-1.06066 25.0599ZM10.8237 34.8222L34.806 10.823L32.6839 8.70241L8.70166 32.7017L10.8237 34.8222ZM22.9221 2.27091L31.4836 10.8239L33.6039 8.70151L25.0424 0.148539L22.9221 2.27091ZM31.4831 8.70204L26.9922 13.1929L29.1136 15.3142L33.6044 10.8234L31.4831 8.70204ZM29.1136 13.1929L25.5098 9.58917L23.3885 11.7105L26.9922 15.3142L29.1136 13.1929ZM23.3885 9.58917L22.79 10.1877L24.9114 12.309L25.5098 11.7105L23.3885 9.58917ZM22.79 12.309L26.3937 15.9127L28.5151 13.7914L24.9114 10.1877L22.79 12.309ZM26.3937 13.7914L23.6941 16.491L25.8155 18.6123L28.5151 15.9127L26.3937 13.7914ZM25.8136 16.4891L23.4069 14.0909L21.2893 16.2159L23.696 18.6142L25.8136 16.4891ZM21.2874 14.0927L20.6889 14.6912L22.8103 16.8126L23.4087 16.2141L21.2874 14.0927ZM20.6889 16.8126L23.0914 19.215L25.2127 17.0937L22.8103 14.6912L20.6889 16.8126ZM23.0914 17.0937L20.2984 19.8867L22.4197 22.008L25.2127 19.215L23.0914 17.0937ZM22.4191 19.8861L18.8154 16.2866L16.6953 18.4092L20.299 22.0086L22.4191 19.8861ZM16.6947 16.2872L16.0962 16.8857L18.2175 19.007L18.816 18.4085L16.6947 16.2872ZM16.0956 19.0064L19.6951 22.6101L21.8176 20.4901L18.2182 16.8863L16.0956 19.0064ZM19.6957 20.4894L17.0852 23.0999L19.2065 25.2212L21.817 22.6108L19.6957 20.4894ZM19.2065 23.0999L16.8041 20.6974L14.6827 22.8187L17.0852 25.2212L19.2065 23.0999ZM14.6827 20.6974L14.0843 21.2959L16.2056 23.4172L16.8041 22.8187L14.6827 20.6974ZM14.0843 23.4172L16.4867 25.8197L18.608 23.6984L16.2056 21.2959L14.0843 23.4172ZM16.4867 23.6984L13.7871 26.398L15.9084 28.5193L18.608 25.8197L16.4867 23.6984ZM15.9084 26.398L12.3047 22.7943L10.1834 24.9156L13.7871 28.5193L15.9084 26.398ZM10.1834 22.7943L9.58493 23.3928L11.7062 25.5141L12.3047 24.9156L10.1834 22.7943ZM9.58492 25.5141L13.1886 29.1178L15.31 26.9965L11.7062 23.3928L9.58492 25.5141ZM13.1886 26.9965L8.69355 31.4916L10.8149 33.6129L15.31 29.1178L13.1886 26.9965ZM10.8149 31.4916L2.2619 22.9386L0.140576 25.0599L8.69355 33.6129L10.8149 31.4916ZM2.26209 25.0597L25.0431 2.27019L22.9214 0.149263L0.140378 22.9388L2.26209 25.0597Z" fill="#05093B" mask="url(#path-1-inside-1)"/>
</svg>
