<svg width="32" height="32" viewBox="0 0 32 32" fill="none" xmlns="http://www.w3.org/2000/svg">
<path d="M32 29.4399V16.2515C32 15.9111 31.7594 15.5708 31.3584 15.6559C31.2782 15.6559 31.1178 15.6559 31.0376 15.741L24.381 19.8251V17.4427C24.381 15.6559 23.0176 14.2094 21.3333 14.2094H8.90226C7.21805 14.2094 5.85464 15.6559 5.85464 17.4427V28.4188C5.85464 30.2056 7.21805 31.6521 8.90226 31.6521H21.4135C23.0978 31.6521 24.4612 30.2056 24.4612 28.4188V26.0364L31.1178 30.1206C31.4386 30.2907 31.7594 30.2056 31.9198 29.8653C32 29.6951 32 29.61 32 29.4399ZM23.178 28.3337C23.178 29.3548 22.3759 30.2907 21.3333 30.2907H8.90226C7.93986 30.2907 7.05765 29.4399 7.05765 28.3337V17.3576C7.05765 16.3366 7.85966 15.4006 8.90226 15.4006H21.4135C22.3759 15.4006 23.2582 16.2515 23.2582 17.3576V28.3337H23.178ZM30.797 28.3337L24.381 24.4198V21.1865L30.797 17.2725V28.3337Z" fill="#05093B"/>
<path d="M27.4286 7.99811L20.1303 0.170173C20.0501 0.0850863 19.8897 0 19.7293 0H2.24561C1.04261 0 0 1.02104 0 2.38242V26.9724C0 28.2487 1.04261 29.3548 2.24561 29.3548H4.33083C4.65163 29.3548 4.89223 29.0995 4.89223 28.7592C4.89223 28.4188 4.65163 28.1636 4.33083 28.1636H2.16541C1.52381 28.1636 1.12281 27.6531 1.04261 26.9724V2.38242C1.04261 1.70173 1.52381 1.19121 2.16541 1.19121H5.85464V8.42354C5.85464 8.76389 6.09524 9.01915 6.41604 9.01915H16.6817C17.0025 9.01915 17.2431 8.76389 17.2431 8.42354C17.2431 8.0832 17.0025 7.82794 16.6817 7.82794H6.89724V1.19121H19.4085L26.386 8.59372V15.9962C26.386 16.3366 26.6266 16.5918 26.9474 16.5918C27.2682 16.5918 27.5088 16.3366 27.5088 15.9962V8.42354C27.589 8.25337 27.5088 8.16829 27.4286 7.99811Z" fill="#05093B"/>
<path d="M16.7619 9.01915H16.3609V0.935951H17.4837V8.25337C17.4837 8.67881 17.1629 9.01915 16.7619 9.01915Z" fill="#05093B"/>
</svg>
