<svg width="31" height="30" viewBox="0 0 31 30" fill="none" xmlns="http://www.w3.org/2000/svg">
<path fill-rule="evenodd" clip-rule="evenodd" d="M13.5529 27.8716C13.2724 28.7111 12.3608 29.2008 11.4491 28.921L10.6076 28.6411C9.76601 28.3613 9.27512 27.4519 9.55563 26.6125L9.62576 26.3326C9.83614 25.6331 9.55563 24.6537 8.92448 24.234L8.78422 24.0941C8.15307 23.6744 7.17127 23.6744 6.61025 24.0941L6.32974 24.304C5.62846 24.7936 4.57653 24.6537 4.01551 23.9542L3.52461 23.2546C2.96359 22.5551 3.17397 21.5058 3.87525 20.9461L4.15576 20.7363C4.78692 20.3165 5.06743 19.3372 4.78692 18.6376L4.71679 18.4278C4.50641 17.7282 3.66487 17.0986 2.96359 17.0986H2.61295C1.70128 17.0986 1 16.3291 1 15.4197V14.5803C1 13.6709 1.70128 12.9713 2.61295 12.9014H2.96359C3.735 12.9014 4.50641 12.2718 4.71679 11.5722L4.78692 11.3624C4.9973 10.6628 4.71679 9.68345 4.15576 9.26373L3.87525 9.05386C3.17397 8.49423 3.03372 7.51486 3.52461 6.74536L4.01551 6.04582C4.57653 5.34627 5.55833 5.13641 6.32974 5.69605L6.61025 5.90591C7.2414 6.32564 8.2232 6.32564 8.78422 5.90591L8.92448 5.766C9.55563 5.34627 9.83614 4.36691 9.62576 3.66736L9.55563 3.38755C9.27512 2.54809 9.76601 1.63868 10.6076 1.35886L11.4491 1.07905C12.2906 0.799227 13.2023 1.28891 13.5529 2.12836L13.6932 2.40818C13.9036 3.10773 14.7451 3.66736 15.5165 3.66736H15.7269C16.4983 3.66736 17.2697 3.10773 17.5502 2.40818L17.6905 2.12836C17.971 1.28891 18.8827 0.799227 19.7943 1.07905L20.6359 1.35886C21.4774 1.63868 21.9683 2.54809 21.6878 3.38755L21.6177 3.66736C21.4073 4.36691 21.6878 5.34627 22.3189 5.766L22.4592 5.90591C23.0904 6.32564 24.0721 6.32564 24.6332 5.90591L24.9137 5.69605C25.615 5.20636 26.6669 5.34627 27.2279 6.04582L27.7188 6.74536C28.2798 7.44491 28.0695 8.49423 27.3682 9.05386L27.0877 9.26373C26.4565 9.68345 26.176 10.6628 26.4565 11.3624L26.5266 11.5722C26.737 12.2718 27.5786 12.9014 28.2798 12.9014H28.6305C29.5421 12.9014 30.2434 13.6709 30.2434 14.5803V15.4197C30.2434 16.3291 29.5421 17.0287 28.6305 17.0986H28.2798C27.5084 17.0986 26.737 17.7282 26.5266 18.4278L26.4565 18.6376C26.2461 19.3372 26.5266 20.3165 27.0877 20.7363L27.3682 20.9461C28.0695 21.5058 28.2097 22.4851 27.7188 23.2546L27.2279 23.9542C26.6669 24.6537 25.6851 24.8636 24.9137 24.304L24.6332 24.0941C24.002 23.6744 23.0202 23.6744 22.4592 24.0941L22.3189 24.234C21.6878 24.6537 21.4073 25.6331 21.6177 26.3326L21.6878 26.6125C21.9683 27.4519 21.4774 28.3613 20.6359 28.6411L19.7943 28.921C18.9528 29.2008 18.0411 28.7111 17.6905 27.8716L17.5502 27.5918C17.3398 26.8923 16.4983 26.3326 15.7269 26.3326H15.5165C14.7451 26.3326 13.9737 26.8923 13.6932 27.5918L13.5529 27.8716ZM15.8654 22.1228C19.7838 22.1228 22.9326 18.9493 22.9326 15C22.9326 11.0507 19.7838 7.87719 15.8654 7.87719C11.947 7.87719 8.79825 11.0507 8.79825 15C8.86822 18.9493 12.017 22.1228 15.8654 22.1228Z" stroke="#05093B"/>
</svg>
