<svg width="29" height="34" viewBox="0 0 29 34" fill="none" xmlns="http://www.w3.org/2000/svg">
<path fill-rule="evenodd" clip-rule="evenodd" d="M14.4101 1L14.2165 1.11093L1 8.82507V24.9509V25.1749L1.19262 25.2869L14.4101 33L27.6266 25.2869L27.8203 25.1749V8.82507L14.6038 1.11093L14.4101 1ZM21.2121 21.0949V13.2645V13.0405L21.0184 12.9285L14.6038 9.18453V1.56213L27.434 9.04907V24.7248L21.2121 21.0949ZM1.38629 9.04907L14.2165 1.56213V9.18453L7.80085 12.9275L7.60823 13.0405V13.2645V21.0949L1.38629 24.7248V9.04907ZM14.2165 16.6715L8.18608 13.1525L14.2165 9.63467L14.4101 9.5216L14.6038 9.63467L20.6331 13.1525L14.6038 16.6715L14.4101 16.7845L14.2165 16.6715ZM14.6038 17.6869V17.4619V17.2379V17.1216L15.9416 16.3397L20.8258 13.4907V20.8688V21.1035L20.6416 21.2112H20.6406L14.6038 24.7248V17.6869ZM7.99558 21.1035V13.4907L14.2165 17.1216V17.2379V17.4619V17.6869V24.7248L8.17973 21.2112H8.17867L7.99558 21.1035ZM14.6038 25.1749L21.0268 21.4363L27.2414 25.0629L14.4101 32.5499L1.57785 25.0629L7.79344 21.4363L14.2165 25.1749L14.4101 25.2869L14.6038 25.1749Z" fill="#05093B" stroke="#05093B" stroke-linecap="round" stroke-linejoin="round"/>
</svg>
