<svg width="33" height="34" viewBox="0 0 33 34" fill="none" xmlns="http://www.w3.org/2000/svg">
<path d="M12.3418 15.8042H9.39344L11.7043 9.27292C12.3418 7.64011 12.7402 6.08893 13.0589 4.70104C13.1386 5.19089 13.3777 5.84401 13.6964 6.8237C14.0151 7.80339 14.2542 8.53816 14.4136 8.94636L15.6885 12.6202" stroke="#05093B" stroke-linecap="round" stroke-linejoin="round"/>
<path d="M20.4098 14.0613L15.435 1H10.7865L1 26.3786H5.48547L8.09519 19.352H13.5593" stroke="#05093B" stroke-linecap="round" stroke-linejoin="round"/>
<path d="M15.2579 19.2584L19.5176 32.3002C19.598 32.4622 19.6783 32.6242 19.8391 32.7052C19.9998 32.7862 20.1606 32.7862 20.4017 32.7052C20.4821 32.7052 20.5624 32.6242 20.6428 32.5432L23.9381 29.222L27.8763 33.1912C27.9567 33.2722 28.1174 33.2722 28.1978 33.1912L32.9397 28.4119C33.0201 28.3309 33.0201 28.1689 32.9397 28.0879L29.0015 24.1187L32.2967 20.8785C32.5379 20.6355 32.5379 20.1494 32.2967 19.9064C32.2164 19.8254 32.136 19.7444 32.0556 19.7444L14.5345 13.7501C14.3738 13.669 14.213 13.669 13.9719 13.7501C13.8916 13.7501 13.8112 13.8311 13.8112 13.9121C13.7308 13.9931 13.6504 14.0741 13.6504 14.1551C13.5701 14.3171 13.5701 14.4791 13.6504 14.5601L15.2579 19.2584ZM27.5548 23.7137C27.3941 23.8757 27.3137 24.0377 27.3137 24.1997C27.3137 24.3617 27.3941 24.5237 27.4744 24.6857L31.0912 28.3309L30.9304 28.4929L27.9567 31.4901L27.7959 31.3281L24.0184 27.5209C23.9381 27.4399 23.7773 27.4399 23.6969 27.5209L20.4017 30.8421L15.3383 15.5322L30.4482 20.7165L27.5548 23.7137Z" fill="#05093B"/>
</svg>
