<?xml version="1.0" encoding="UTF-8"?>
<svg width="128px" height="128px" viewBox="0 0 128 128" version="1.1" xmlns="http://www.w3.org/2000/svg" xmlns:xlink="http://www.w3.org/1999/xlink">
    <!-- Generator: Sketch 63.1 (92452) - https://sketch.com -->
    <title>top 128</title>
    <desc>Created with Sketch.</desc>
    <g id="top" stroke="none" stroke-width="1" fill="none" fill-rule="evenodd">
        <g>
            <path d="M9.06581333,122.66752 L44.5346133,87.19872 L81.5991467,87.19872 L81.5991467,122.66752 L9.06581333,122.66752 Z M87.1970133,44.53632 L122.665813,9.06752 L122.665813,81.8653867 L87.1970133,81.8653867 L87.1970133,44.53632 Z M46.1346133,81.8653867 L46.1346133,46.13632 L81.5991467,46.13632 L81.5991467,81.6008533 L46.1346133,81.6008533 L46.1346133,81.8653867 Z M5.33248,46.13632 L40.7970133,46.13632 L40.7970133,83.2008533 L5.33248,118.934187 L5.33248,46.13632 Z M40.7970133,40.8029867 L9.06581333,40.8029867 L40.7970133,9.06752 L40.7970133,40.8029867 Z M83.46368,40.8029867 L46.1346133,40.8029867 L46.1346133,5.33418667 L118.93248,5.33418667 L83.46368,40.8029867 Z M87.1970133,87.19872 L118.93248,87.19872 L87.1970133,118.934187 L87.1970133,87.19872 Z M127.999147,84.5320533 L127.999147,2.66752 C127.999147,2.40298667 127.999147,1.86965333 127.730347,1.60085333 C127.465813,1.06752 126.93248,0.534186667 126.399147,0.269653333 C126.130347,0.000853333333 125.597013,0.000853333333 125.33248,0.000853333333 L43.4679467,0.000853333333 C43.1991467,0.000853333333 42.6658133,0.000853333333 42.3970133,0.269653333 C42.13248,0.534186667 41.86368,0.534186667 41.5991467,0.802986667 L0.80128,41.6008533 C0.53248,41.8696533 0.26368,42.1341867 0.26368,42.4029867 C-0.000853333333,42.93632 -0.000853333333,43.2008533 -0.000853333333,43.4696533 L-0.000853333333,125.334187 C-0.000853333333,125.59872 -0.000853333333,126.132053 0.26368,126.400853 C0.53248,126.934187 1.06581333,127.46752 1.59914667,127.732053 C1.86794667,128.000853 2.40128,128.000853 2.66581333,128.000853 L84.5303467,128.000853 C84.7991467,128.000853 85.33248,128.000853 85.5970133,127.732053 C85.8658133,127.46752 86.1303467,127.46752 86.3991467,127.19872 L127.197013,86.4008533 C127.465813,86.1320533 127.730347,85.86752 127.730347,85.59872 C127.999147,85.0653867 127.999147,84.8008533 127.999147,84.5320533 L127.999147,84.5320533 Z" id="Fill-1" fill="#05093B"></path>
            <polygon id="Fill-4" fill="#87A5C5" points="9.06581333 40.8008533 83.46368 40.8008533 118.93248 5.33205333 44.5815467 5.33205333"></polygon>
        </g>
    </g>
</svg>