<svg width="26" height="19" viewBox="0 0 26 19" fill="none" xmlns="http://www.w3.org/2000/svg">
<path d="M25.8133 9.11403C25.5807 8.77014 20.0388 0.6875 13.0103 0.6875C5.98184 0.6875 0.4399 8.77014 0.207353 9.11403C0.0903062 9.28674 0.0903062 9.51275 0.207353 9.68546C0.4399 10.0299 5.98184 18.1125 13.0103 18.1125C20.0388 18.1125 25.5807 10.0299 25.8133 9.68598C25.9303 9.51275 25.9303 9.28725 25.8133 9.11403ZM13.0103 17.0875C7.24151 17.0875 2.3142 10.8253 1.26799 9.4C2.3142 7.97474 7.24151 1.7125 13.0103 1.7125C18.7791 1.7125 23.7064 7.97474 24.7526 9.4C23.7064 10.8253 18.7791 17.0875 13.0103 17.0875Z" fill="#05093B"/>
<path d="M13.0103 4.78748C10.4518 4.78748 8.36969 6.85695 8.36969 9.39998C8.36969 11.9435 10.4518 14.0125 13.0103 14.0125C15.5694 14.0125 17.6509 11.9435 17.6509 9.39998C17.6509 6.85695 15.5694 4.78748 13.0103 4.78748ZM13.0103 12.9875C11.02 12.9875 9.40094 11.3777 9.40094 9.39998C9.40094 7.42173 11.02 5.81248 13.0103 5.81248C15.0001 5.81248 16.6197 7.42173 16.6197 9.39998C16.6197 11.3777 15.0001 12.9875 13.0103 12.9875Z" fill="#05093B"/>
</svg>
