<svg width="37" height="37" viewBox="0 0 37 37" fill="none" xmlns="http://www.w3.org/2000/svg">
<path d="M26.8978 30.0342V22.5481L26.9046 21.3553L19.5345 17.1861L18.614 16.6579L17.6936 17.1861C15.2933 18.595 10.3303 21.3553 10.3303 21.3553L10.3303 22.5481C10.3299 22.8763 10.3303 30.0342 10.3303 30.0342V30.9689C10.3303 30.9689 17.4138 35.2319 17.6936 35.3962L18.614 36L19.5345 35.3962L26.9091 31.0263L26.8978 30.0342Z" stroke="#05093B" stroke-width="0.9" stroke-linejoin="round"/>
<path d="M17.6873 14.3763V6.89017L17.6941 5.69737L10.3239 1.5282L9.40351 1L8.48309 1.5282C6.08277 2.93713 1.11972 5.69737 1.11972 5.69737L1.11972 6.89017C1.11938 7.21837 1.11972 14.3763 1.11972 14.3763V15.311C1.11972 15.311 8.20324 19.574 8.48309 19.7383L9.40351 20.3421L10.3239 19.7383L17.6985 15.3684L17.6873 14.3763Z" stroke="#05093B" stroke-width="0.9" stroke-linecap="round" stroke-linejoin="round"/>
<path d="M36.1084 14.3763V6.89017L36.1151 5.69737L28.745 1.5282L27.8246 1L26.9041 1.5282C24.5038 2.93713 19.5408 5.69737 19.5408 5.69737L19.5408 6.89017C19.5404 7.21837 19.5408 14.3763 19.5408 14.3763V15.311C19.5408 15.311 26.6243 19.574 26.9041 19.7383L27.8246 20.3421L28.745 19.7383L36.1196 15.3684L36.1084 14.3763Z" stroke="#05093B" stroke-width="0.9" stroke-linecap="round" stroke-linejoin="round"/>
<path d="M10.3301 21.2632L18.6889 25.8684L26.9091 21.2632" stroke="#05093B" stroke-width="0.9" stroke-linejoin="round"/>
<path d="M1.11957 6L9.47834 10.2105L17.6196 6" stroke="#05093B" stroke-width="0.9" stroke-linecap="round" stroke-linejoin="round"/>
<path d="M19.6196 6L27.8994 10.2105L36.1196 6" stroke="#05093B" stroke-width="0.9" stroke-linecap="round" stroke-linejoin="round"/>
<path d="M18.6196 36V25.8684" stroke="#05093B" stroke-width="0.9" stroke-linejoin="round"/>
<path d="M9.40903 20.3421V10.2105" stroke="#05093B" stroke-width="0.9" stroke-linecap="round" stroke-linejoin="round"/>
<path d="M27.8301 20.3421V10.2105" stroke="#05093B" stroke-width="0.9" stroke-linecap="round" stroke-linejoin="round"/>
</svg>
