<?xml version="1.0" encoding="UTF-8"?>
<svg width="128px" height="128px" viewBox="0 0 128 128" version="1.1" xmlns="http://www.w3.org/2000/svg" xmlns:xlink="http://www.w3.org/1999/xlink">
    <!-- Generator: Sketch 63.1 (92452) - https://sketch.com -->
    <title>MT Partail Open 128</title>
    <desc>Created with Sketch.</desc>
    <g id="MT-Partail-Open" stroke="none" stroke-width="1" fill="none" fill-rule="evenodd">
        <g transform="translate(4.000000, 18.116279)" fill="#05093B" fill-rule="nonzero" id="Group">
            <g transform="translate(0.000000, 0.883721)">
                <g transform="translate(86.511628, 37.242424)">
                    <path d="M30.6976744,4.69090909 L2.51162791,4.69090909 C1.6744186,4.69090909 0.837209302,3.85454545 0.837209302,3.01818182 C0.837209302,2.18181818 1.6744186,1.34545455 2.51162791,1.34545455 L30.6976744,1.34545455 C31.5348837,1.34545455 32.372093,2.18181818 32.372093,3.01818182 C32.372093,3.85454545 31.5348837,4.69090909 30.6976744,4.69090909" id="Path"></path>
                    <path d="M30.6976744,5.52727273 L2.51162791,5.52727273 C1.11627907,5.52727273 0,4.41212121 0,3.01818182 C0,1.62424242 1.11627907,0.509090909 2.51162791,0.509090909 L30.6976744,0.509090909 C32.0930233,0.509090909 33.2093023,1.62424242 33.2093023,3.01818182 C32.9302326,4.41212121 31.8139535,5.52727273 30.6976744,5.52727273 Z M2.51162791,1.9030303 C1.95348837,1.9030303 1.39534884,2.46060606 1.39534884,3.01818182 C1.39534884,3.57575758 1.95348837,4.13333333 2.51162791,4.13333333 L30.6976744,4.13333333 C31.255814,4.13333333 31.8139535,3.57575758 31.8139535,3.01818182 C31.8139535,2.46060606 31.255814,1.9030303 30.6976744,1.9030303 L2.51162791,1.9030303 Z" id="Shape"></path>
                </g>
                <g transform="translate(100.465116, 46.393939)">
                    <path d="M16.744186,4.46060606 L2.79069767,4.46060606 C1.95348837,4.46060606 1.11627907,3.62424242 1.11627907,2.78787879 C1.11627907,1.95151515 1.95348837,1.11515152 2.79069767,1.11515152 L16.744186,1.11515152 C17.5813953,1.11515152 18.4186047,1.95151515 18.4186047,2.78787879 C18.4186047,3.62424242 17.5813953,4.46060606 16.744186,4.46060606" id="Path"></path>
                    <path d="M16.744186,5.01818182 L2.79069767,5.01818182 C1.39534884,5.01818182 0.279069767,3.9030303 0.279069767,2.50909091 C0.279069767,1.11515152 1.39534884,0 2.79069767,0 L16.744186,0 C18.1395349,0 19.255814,1.11515152 19.255814,2.50909091 C19.255814,3.9030303 17.8604651,5.01818182 16.744186,5.01818182 Z M2.51162791,1.67272727 C1.95348837,1.67272727 1.39534884,2.23030303 1.39534884,2.78787879 C1.39534884,3.34545455 1.95348837,3.9030303 2.51162791,3.9030303 L16.4651163,3.9030303 C17.0232558,3.9030303 17.5813953,3.34545455 17.5813953,2.78787879 C17.5813953,2.23030303 17.0232558,1.67272727 16.4651163,1.67272727 L2.51162791,1.67272727 Z" id="Shape"></path>
                </g>
                <g transform="translate(1.000000, 25.090909)" id="Shape">
                    <path d="M18.255814,4.2969697 C17.1395349,4.2969697 16.0232558,5.13333333 15.744186,6.24848485 L5.13953488,57.8242424 C5.13953488,58.3818182 5.13953488,59.2181818 5.69767442,59.7757576 C6.25581395,60.3333333 6.81395349,60.6121212 7.37209302,60.6121212 L86.3488372,60.6121212 C89.4186047,60.6121212 91.9302326,58.3818182 92.4883721,55.5939394 L102.534884,7.36363636 C102.813953,6.52727273 102.534884,5.96969697 101.976744,5.41212121 C101.418605,4.85454545 100.860465,4.57575758 100.023256,4.57575758 L18.255814,4.57575758 L18.255814,4.2969697 Z M86.3488372,63.9575758 L7.37209302,63.9575758 C5.69767442,63.9575758 4.02325581,63.1212121 2.90697674,61.7272727 C1.79069767,60.3333333 1.51162791,58.6606061 1.79069767,56.9878788 L12.3953488,5.41212121 C12.9534884,2.62424242 15.4651163,0.672727273 18.255814,0.672727273 L100.023256,0.672727273 C101.697674,0.672727273 103.651163,1.50909091 104.767442,2.9030303 C105.883721,4.2969697 106.44186,5.96969697 105.883721,7.92121212 L95.8372093,56.1515152 C95,60.6121212 91.0930233,63.9575758 86.3488372,63.9575758 L86.3488372,63.9575758 Z"></path>
                    <path d="M86.3488372,64.5151515 L7.37209302,64.5151515 C5.41860465,64.5151515 3.74418605,63.6787879 2.34883721,62.2848485 C1.23255814,60.8909091 0.674418605,58.9393939 0.953488372,56.9878788 L11.5581395,5.41212121 C12.1162791,2.34545455 14.9069767,0.115151515 17.9767442,0.115151515 L99.744186,0.115151515 C101.697674,0.115151515 103.651163,0.951515152 105.046512,2.62424242 C106.44186,4.2969697 106.72093,6.24848485 106.44186,8.2 L96.3953488,56.430303 C95.5581395,60.8909091 91.372093,64.5151515 86.3488372,64.5151515 Z M18.255814,1.23030303 C15.744186,1.23030303 13.5116279,2.9030303 13.2325581,5.41212121 L2.62790698,56.9878788 C2.34883721,58.3818182 2.62790698,60.0545455 3.74418605,61.169697 C4.58139535,62.2848485 6.25581395,63.1212121 7.65116279,63.1212121 L86.627907,63.1212121 C91.0930233,63.1212121 94.7209302,60.0545455 95.5581395,55.8727273 L105.604651,7.64242424 C105.883721,6.24848485 105.604651,4.57575758 104.488372,3.18181818 C103.372093,2.06666667 101.976744,1.23030303 100.302326,1.23030303 L18.255814,1.23030303 Z M86.3488372,61.169697 L7.37209302,61.169697 C6.53488372,61.169697 5.69767442,60.8909091 5.13953488,60.0545455 C4.58139535,59.4969697 4.30232558,58.3818182 4.58139535,57.5454545 L15.1860465,5.96969697 C15.4651163,4.57575758 16.8604651,3.46060606 18.255814,3.46060606 L100.023256,3.46060606 C100.860465,3.46060606 101.976744,4.01818182 102.534884,4.57575758 C103.093023,5.41212121 103.372093,6.24848485 103.093023,7.08484848 L93.0465116,55.3151515 C92.4883721,58.6606061 89.6976744,61.169697 86.3488372,61.169697 Z M18.255814,4.85454545 C17.4186047,4.85454545 16.5813953,5.41212121 16.5813953,6.24848485 L5.97674419,57.8242424 C5.97674419,58.3818182 5.97674419,58.6606061 6.25581395,59.2181818 C6.53488372,59.4969697 7.09302326,59.7757576 7.37209302,59.7757576 L86.3488372,59.7757576 C89.1395349,59.7757576 91.372093,57.8242424 91.9302326,55.3151515 L101.976744,7.08484848 C101.976744,6.52727273 101.976744,5.96969697 101.697674,5.69090909 C101.418605,5.41212121 100.860465,5.13333333 100.302326,5.13333333 L18.255814,5.13333333 L18.255814,4.85454545 Z"></path>
                </g>
                <g transform="translate(25.116279, 1.000000)">
                    <path d="M61.3953488,28.3878788 C60.5581395,28.3878788 60,27.830303 59.7209302,27.2727273 L51.9069767,6.08484848 C51.627907,5.52727273 51.3488372,5.24848485 51.0697674,4.96969697 C50.7906977,4.69090909 50.2325581,4.69090909 49.6744186,4.96969697 L3.62790698,28.3878788 C2.79069767,28.9454545 1.6744186,28.3878788 1.39534884,27.5515152 C0.837209302,26.7151515 1.39534884,25.6 2.23255814,25.3212121 L48.2790698,1.9030303 C48.2790698,1.9030303 48.2790698,1.9030303 48.5581395,1.9030303 C49.9534884,1.34545455 51.3488372,1.34545455 52.4651163,2.18181818 C53.8604651,2.73939394 54.6976744,3.85454545 55.255814,5.24848485 L63.0697674,26.4363636 C63.3488372,27.2727273 63.0697674,28.3878788 61.9534884,28.6666667 C61.6744186,28.1090909 61.6744186,28.3878788 61.3953488,28.3878788" id="Path"></path>
                    <path d="M61.3953488,28.9454545 C60.2790698,28.9454545 59.4418605,28.3878788 59.1627907,27.2727273 L51.3488372,6.08484848 C51.3488372,5.80606061 51.0697674,5.52727273 50.7906977,5.52727273 C50.5116279,5.52727273 50.2325581,5.52727273 49.9534884,5.52727273 L4.18604651,28.6666667 C3.62790698,28.9454545 3.06976744,28.9454545 2.23255814,28.9454545 C1.6744186,28.6666667 1.11627907,28.3878788 0.837209302,27.830303 C0.279069767,26.7151515 0.837209302,25.0424242 1.95348837,24.4848485 L48,1.06666667 C48,1.06666667 48.2790698,1.06666667 48.2790698,1.06666667 C49.6744186,0.509090909 51.3488372,0.509090909 52.744186,1.34545455 C54.1395349,1.9030303 55.255814,3.2969697 55.8139535,4.69090909 L63.627907,25.8787879 C63.9069767,26.4363636 63.9069767,27.2727273 63.627907,27.830303 C63.3488372,28.3878788 62.7906977,28.9454545 62.2325581,29.2242424 C61.9534884,28.9454545 61.6744186,28.9454545 61.3953488,28.9454545 Z M50.2325581,4.13333333 C50.5116279,4.13333333 50.7906977,4.13333333 51.3488372,4.41212121 C51.9069767,4.69090909 52.4651163,5.24848485 52.744186,5.80606061 L60.5581395,26.9939394 C60.8372093,27.5515152 61.3953488,27.830303 61.9534884,27.5515152 C62.5116279,27.2727273 62.7906977,26.7151515 62.5116279,26.1575758 L54.6976744,4.96969697 C54.1395349,3.85454545 53.3023256,3.01818182 52.1860465,2.46060606 C51.0697674,1.9030303 49.9534884,1.9030303 48.5581395,2.18181818 L2.51162791,25.6 C1.95348837,25.8787879 1.6744186,26.4363636 1.95348837,26.9939394 C1.95348837,27.2727273 2.23255814,27.5515152 2.51162791,27.5515152 C2.79069767,27.5515152 3.06976744,27.5515152 3.34883721,27.5515152 L49.3953488,4.13333333 C49.6744186,4.13333333 49.9534884,4.13333333 50.2325581,4.13333333 Z" id="Shape"></path>
                </g>
                <g transform="translate(78.139535, 10.151515)">
                    <path d="M15.0697674,19.2363636 L8.37209302,19.2363636 C7.53488372,19.2363636 6.69767442,18.4 6.69767442,17.5636364 C6.69767442,16.7272727 7.53488372,15.8909091 8.37209302,15.8909091 L13.3953488,15.8909091 L13.3953488,8.92121212 C13.3953488,6.96969697 11.7209302,5.2969697 9.76744186,5.2969697 L3.34883721,5.2969697 C2.51162791,5.2969697 1.6744186,4.46060606 1.6744186,3.62424242 C1.6744186,2.78787879 2.51162791,1.95151515 3.34883721,1.95151515 L9.76744186,1.95151515 C13.6744186,1.95151515 16.744186,5.01818182 16.744186,8.92121212 L16.744186,17.5636364 C16.744186,18.4 15.9069767,19.2363636 15.0697674,19.2363636" id="Path"></path>
                    <path d="M15.0697674,19.7939394 L8.37209302,19.7939394 C6.97674419,19.7939394 5.86046512,18.6787879 5.86046512,17.2848485 C5.86046512,15.8909091 6.97674419,14.7757576 8.37209302,14.7757576 L12.5581395,14.7757576 L12.5581395,8.36363636 C12.5581395,6.69090909 11.1627907,5.57575758 9.76744186,5.57575758 L3.34883721,5.57575758 C1.95348837,5.57575758 0.837209302,4.46060606 0.837209302,3.06666667 C0.837209302,1.67272727 1.95348837,0.557575758 3.34883721,0.557575758 L9.76744186,0.557575758 C13.9534884,0.557575758 17.5813953,3.9030303 17.5813953,8.36363636 L17.5813953,17.0060606 C17.3023256,18.6787879 16.4651163,19.7939394 15.0697674,19.7939394 Z M8.37209302,16.169697 C7.81395349,16.169697 7.25581395,16.7272727 7.25581395,17.2848485 C7.25581395,17.8424242 7.81395349,18.4 8.37209302,18.4 L15.0697674,18.4 C15.627907,18.4 16.1860465,17.8424242 16.1860465,17.2848485 L16.1860465,8.64242424 C16.1860465,5.2969697 13.3953488,2.23030303 9.76744186,2.23030303 L3.34883721,2.23030303 C2.79069767,2.23030303 2.23255814,2.78787879 2.23255814,3.34545455 C2.23255814,3.9030303 2.79069767,4.46060606 3.34883721,4.46060606 L9.76744186,4.46060606 C12,4.46060606 13.9534884,6.41212121 13.9534884,8.64242424 L13.9534884,16.4484848 L8.37209302,16.4484848 L8.37209302,16.169697 Z" id="Shape"></path>
                </g>
                <g>
                    <path d="M5.86046512,88.2121212 C5.58139535,88.2121212 5.30232558,88.2121212 5.02325581,87.9333333 C3.06976744,86.5393939 1.6744186,84.3090909 1.6744186,82.0787879 L1.6744186,8.47878788 C1.6744186,4.57575758 4.74418605,1.50909091 8.65116279,1.50909091 L28.4651163,1.50909091 C30.1395349,1.50909091 31.5348837,2.34545455 32.6511628,3.46060606 L39.3488372,11.8242424 L55.5348837,11.8242424 C56.372093,11.8242424 57.2093023,12.6606061 57.2093023,13.4969697 C57.2093023,14.3333333 56.372093,15.169697 55.5348837,15.169697 L39.3488372,15.169697 C38.2325581,15.169697 37.1162791,14.6121212 36.5581395,13.7757576 L29.8604651,5.13333333 C29.5813953,4.85454545 29.0232558,4.57575758 28.4651163,4.57575758 L8.65116279,4.57575758 C6.69767442,4.57575758 5.02325581,6.24848485 5.02325581,8.2 L5.02325581,81.8 C5.02325581,82.9151515 5.58139535,84.030303 6.69767442,84.8666667 C7.53488372,85.4242424 7.81395349,86.5393939 7.25581395,87.3757576 C7.25581395,87.9333333 6.69767442,88.2121212 5.86046512,88.2121212" id="Path"></path>
                    <path d="M5.86046512,88.769697 C5.30232558,88.769697 5.02325581,88.769697 4.46511628,88.4909091 C2.23255814,87.0969697 0.837209302,84.5878788 0.837209302,82.0787879 L0.837209302,8.47878788 C0.837209302,4.2969697 4.18604651,0.672727273 8.65116279,0.672727273 L28.4651163,0.672727273 C30.4186047,0.672727273 32.0930233,1.50909091 33.2093023,2.9030303 L39.9069767,11.2666667 L55.8139535,11.2666667 C57.2093023,11.2666667 58.3255814,12.3818182 58.3255814,13.7757576 C58.3255814,15.169697 57.2093023,16.2848485 55.8139535,16.2848485 L39.627907,16.2848485 C38.2325581,16.2848485 37.1162791,15.7272727 36.2790698,14.6121212 L29.5813953,5.96969697 C29.3023256,5.69090909 29.0232558,5.69090909 28.744186,5.69090909 L8.93023256,5.69090909 C7.25581395,5.69090909 6.13953488,7.08484848 6.13953488,8.47878788 L6.13953488,82.0787879 C6.13953488,82.9151515 6.69767442,84.030303 7.53488372,84.3090909 C8.65116279,85.1454545 8.93023256,86.5393939 8.37209302,87.6545455 C7.53488372,88.4909091 6.69767442,88.769697 5.86046512,88.769697 Z M8.93023256,1.78787879 C5.30232558,1.78787879 2.51162791,4.57575758 2.51162791,8.2 L2.51162791,81.8 C2.51162791,84.030303 3.62790698,85.9818182 5.58139535,87.0969697 C6.13953488,87.3757576 6.69767442,87.3757576 6.97674419,86.8181818 C7.25581395,86.2606061 7.25581395,85.7030303 6.69767442,85.4242424 C5.58139535,84.5878788 4.74418605,83.1939394 4.74418605,81.8 L4.74418605,8.2 C4.74418605,5.96969697 6.69767442,4.01818182 8.93023256,4.01818182 L28.744186,4.01818182 C29.5813953,4.01818182 30.1395349,4.2969697 30.6976744,4.85454545 L37.3953488,13.4969697 C37.9534884,14.3333333 38.7906977,14.6121212 39.627907,14.6121212 L55.8139535,14.6121212 C56.372093,14.6121212 56.9302326,14.0545455 56.9302326,13.4969697 C56.9302326,12.9393939 56.372093,12.3818182 55.8139535,12.3818182 L39.0697674,12.3818182 L32.0930233,3.73939394 C31.255814,2.62424242 29.8604651,2.06666667 28.4651163,2.06666667 L8.93023256,2.06666667 L8.93023256,1.78787879 Z" id="Shape"></path>
                </g>
            </g>
        </g>
    </g>
</svg>