<svg width="25" height="28" viewBox="0 0 25 28" fill="none" xmlns="http://www.w3.org/2000/svg">
<path d="M24.1497 25.4989C24.2102 25.2549 24.2102 25.0109 24.2102 24.8279V8.4793C24.2102 6.77124 22.9997 5.00218 21.1234 5.00218H13.4367C12.8314 5.00218 12.5893 4.75817 12.5893 4.51416V4.08715C12.5893 1.76906 10.8341 0 8.47358 0H4.29732C1.87629 0 0 1.76906 0 4.08715V24.8279C0 26.597 1.45261 28 3.20786 28H21.1234C21.184 28 21.2445 28 21.305 28C22.576 27.939 23.6655 27.085 24.0287 25.8649V25.8039C24.0892 25.6819 24.1497 25.6209 24.1497 25.4989ZM23.2418 24.8279C23.2418 24.8889 23.2418 25.0109 23.2418 25.0719V25.1329C23.2418 25.1939 23.2418 25.1939 23.2418 25.2549V25.3159C23.1813 25.4379 23.1813 25.6209 23.1208 25.7429C22.7576 26.5359 21.9103 27.085 21.0629 27.085H6.47624L6.71834 26.78C7.38412 25.9259 7.68675 25.0109 7.68675 24.0959V12.6275C7.68675 11.4074 8.95779 10.8584 10.1683 10.8584H21.0024C22.455 10.8584 23.2418 11.5294 23.2418 12.6275V24.8279ZM23.2418 10.6144L22.9392 10.4314C22.3945 10.0654 21.6682 9.88235 20.9419 9.88235H10.1683C8.47358 9.88235 6.71834 10.7974 6.71834 12.6275V24.0349C6.71834 25.4989 5.81046 27.024 4.11574 27.024H3.20786C1.99734 27.024 0.96841 25.9869 0.96841 24.8279V4.08715C0.96841 2.13508 2.66313 0.976035 4.29732 0.976035H8.47358C10.2894 0.976035 11.6209 2.25708 11.6209 4.08715V4.51416C11.6209 5.42919 12.2867 5.97821 13.4367 5.97821H21.1234C22.3945 5.97821 23.2418 7.32026 23.2418 8.4793V10.6144Z" fill="#05093B"/>
<path d="M12.5288 21.7168H16.0998C16.7656 21.7168 17.3708 21.2288 17.4314 20.5578L17.4919 20.2527L19.6708 21.6558C19.7313 21.7168 19.8524 21.7168 19.9129 21.7168C20.034 21.7168 20.155 21.7168 20.2155 21.6558C20.3971 21.5338 20.5787 21.4118 20.5787 21.2288V17.0196C20.5787 16.8366 20.3971 16.7146 20.2761 16.5926C20.2155 16.5316 20.0945 16.5316 19.9734 16.5316C19.8524 16.5316 19.7313 16.5316 19.6708 16.5926L17.4314 17.8127L17.3708 17.5687C17.1893 17.0196 16.6445 16.5926 16.0393 16.5926H12.4683C11.6814 16.5926 11.0762 17.2026 11.0762 17.9957V20.2527C11.1972 21.0458 11.8025 21.7168 12.5288 21.7168ZM17.855 18.8497L19.6708 17.8737V20.3748L17.734 19.2157L17.855 18.8497ZM12.1656 18.0567C12.1656 17.8127 12.3472 17.6297 12.5893 17.6297H16.1603C16.4024 17.6297 16.584 17.8127 16.584 18.0567V20.3138C16.584 20.5578 16.4024 20.7408 16.1603 20.7408H12.5893C12.3472 20.7408 12.1656 20.5578 12.1656 20.3138V18.0567Z" fill="#05093B"/>
</svg>
