<svg width="34" height="34" viewBox="0 0 34 34" fill="none" xmlns="http://www.w3.org/2000/svg">
<path d="M13.1829 1C6.45886 1 1 6.50287 1 13.2811C1 18.5634 4.3128 23.0629 8.96045 24.7947C9.08609 24.8493 9.23142 24.8295 9.33807 24.743C9.44473 24.6566 9.49521 24.5178 9.46926 24.3824C9.44331 24.2469 9.34517 24.137 9.21426 24.0969C4.85032 22.4708 1.73836 18.25 1.73836 13.2811C1.73836 6.90513 6.85791 1.74431 13.1829 1.74431C19.508 1.74431 24.6275 6.90513 24.6275 13.2811C24.6275 19.6571 19.508 24.8179 13.1829 24.8179C13.0498 24.816 12.926 24.8865 12.8588 25.0025C12.7917 25.1184 12.7917 25.2618 12.8588 25.3777C12.926 25.4936 13.0498 25.5641 13.1829 25.5622C16.4137 25.5622 19.3542 24.2963 21.5356 22.2245L32.115 32.889C32.2586 33.0353 32.4924 33.0372 32.6384 32.8933C32.7843 32.7494 32.7876 32.5137 32.6457 32.3657L22.0548 21.6895C24.1067 19.4911 25.3659 16.5349 25.3659 13.2811C25.3659 6.50287 19.907 1 13.1829 1ZM7.57602 7.32664C7.39952 7.36059 7.2729 7.51769 7.27606 7.69879V10.676C7.27418 10.8102 7.34413 10.9351 7.45913 11.0027C7.57413 11.0704 7.71636 11.0704 7.83136 11.0027C7.94636 10.9351 8.01631 10.8102 8.01442 10.676V8.07095H10.5987C10.7318 8.07285 10.8557 8.00233 10.9228 7.88641C10.9899 7.77048 10.9899 7.6271 10.9228 7.51118C10.8557 7.39525 10.7318 7.32474 10.5987 7.32664H7.64524C7.62222 7.32445 7.59905 7.32445 7.57602 7.32664ZM15.698 7.32664C15.4941 7.34591 15.3443 7.52815 15.3634 7.73368C15.3825 7.93922 15.5633 8.09022 15.7672 8.07095H18.3515V10.676C18.3496 10.8102 18.4195 10.9351 18.5345 11.0027C18.6495 11.0704 18.7918 11.0704 18.9068 11.0027C19.0218 10.9351 19.0917 10.8102 19.0899 10.676V7.69879C19.0898 7.49327 18.9245 7.32666 18.7207 7.32664H15.7672C15.7442 7.32445 15.721 7.32445 15.698 7.32664ZM7.5991 15.5024C7.40893 15.5264 7.26861 15.6932 7.27606 15.8862V18.8634C7.27608 19.069 7.44136 19.2356 7.64524 19.2356H10.5987C10.7318 19.2375 10.8557 19.167 10.9228 19.0511C10.9899 18.9351 10.9899 18.7918 10.9228 18.6758C10.8557 18.5599 10.7318 18.4894 10.5987 18.4913H8.01442V15.8862C8.01866 15.7769 7.97498 15.6712 7.89498 15.5973C7.81498 15.5234 7.70676 15.4887 7.5991 15.5024ZM18.6745 15.5024C18.4843 15.5264 18.344 15.6932 18.3515 15.8862V18.4913H15.7672C15.6341 18.4894 15.5102 18.5599 15.4431 18.6758C15.376 18.7918 15.376 18.9351 15.4431 19.0511C15.5102 19.167 15.6341 19.2375 15.7672 19.2356H18.7207C18.9245 19.2356 19.0898 19.069 19.0898 18.8634V15.8862C19.0941 15.7769 19.0504 15.6712 18.9704 15.5973C18.8904 15.5234 18.7822 15.4887 18.6745 15.5024Z" fill="#05093B" stroke="#05093B"/>
</svg>
