<?xml version="1.0" encoding="UTF-8"?>
<svg width="210px" height="36px" viewBox="0 0 210 36" version="1.1" xmlns="http://www.w3.org/2000/svg" xmlns:xlink="http://www.w3.org/1999/xlink">
    <title>logo-full</title>
    <defs>
        <polygon id="path-1" points="0.1411 0.2372 25.3281 0.2372 25.3281 34 0.1411 34"></polygon>
        <polygon id="path-3" points="0.0902 0.434 15.9222 0.434 15.9222 16.1996 0.0902 16.1996"></polygon>
    </defs>
    <g id="-" stroke="none" stroke-width="1" fill="none" fill-rule="evenodd">
        <g id="Extra-large:-Desktops---12-col" transform="translate(-87.000000, -21.000000)">
            <g id="logo-full" transform="translate(87.000000, 21.000000)">
                <polygon id="Fill-1" fill="#18208A" points="52.4439 6.7484 63.4199 29.8444 53.4289 29.8444 48.2259 35.5664 66.1019 35.5664 67.4979 35.5664 73.5759 35.5664 57.1979 1.0014"></polygon>
                <g id="Group-37" transform="translate(0.000000, 0.566400)">
                    <g id="Group-4" transform="translate(28.000000, 1.000000)">
                        <mask id="mask-2" fill="white">
                            <use xlink:href="#path-1"></use>
                        </mask>
                        <g id="Clip-3"></g>
                        <path d="M25.3281,17.1172 C25.3281,8.0952 18.2061,0.7042 9.2871,0.2592 L9.2871,0.2382 L8.4511,0.2382 C8.4451,0.2382 8.4401,0.2372 8.4331,0.2372 L7.5681,0.2372 L7.5681,0.2382 L0.1611,0.2382 L6.6681,7.5082 L8.4581,7.5082 C13.7571,7.5272 18.0521,11.8322 18.0521,17.1172 C18.0521,22.4162 13.7351,26.7292 8.4331,26.7292 L7.5681,26.7292 L6.7501,26.7292 L0.1411,34.0002 L9.3741,34.0002 L9.3741,33.9792 C18.2521,33.4822 25.3281,26.1112 25.3281,17.1172" id="Fill-2" fill="#18208A" mask="url(#mask-2)"></path>
                    </g>
                    <g id="Group-7" transform="translate(79.000000, 0.000000)">
                        <mask id="mask-4" fill="white">
                            <use xlink:href="#path-3"></use>
                        </mask>
                        <g id="Clip-6"></g>
                        <path d="M13.8462,8.3506 C13.8462,10.0246 13.2692,11.4336 12.1392,12.5406 C11.0092,13.6566 9.6142,14.2126 7.9782,14.2126 C6.3932,14.2126 5.0252,13.6436 3.8862,12.5066 C2.7502,11.3696 2.1672,9.9656 2.1672,8.3276 C2.1672,6.6876 2.7312,5.2696 3.8322,4.1306 C4.9332,2.9926 6.3332,2.4086 7.9782,2.4086 C9.5822,2.4086 10.9752,2.9916 12.1172,4.1266 C13.2602,5.2576 13.8462,6.6856 13.8462,8.3506 M11.9602,1.4656 C10.7352,0.7766 9.3692,0.4336 7.9122,0.4336 C6.5272,0.4336 5.2112,0.7816 4.0032,1.4756 C2.7932,2.1766 1.8332,3.1406 1.1322,4.3596 C0.4382,5.5786 0.0902,6.9196 0.0902,8.3396 C0.0902,9.7696 0.4382,11.1036 1.1322,12.3086 C1.8342,13.5116 2.8032,14.4756 4.0312,15.1616 C5.2572,15.8446 6.6002,16.1996 8.0242,16.1996 C9.4462,16.1996 10.7832,15.8436 12.0002,15.1486 C13.2172,14.4606 14.1792,13.4866 14.8732,12.2726 C15.5772,11.0626 15.9222,9.7276 15.9222,8.3056 C15.9222,6.8836 15.5732,5.5476 14.8712,4.3346 C14.1602,3.1156 13.1872,2.1576 11.9602,1.4656" id="Fill-5" fill="#18208A" mask="url(#mask-4)"></path>
                    </g>
                    <path d="M107.8242,10.2725 C107.8242,11.3955 107.4302,12.3635 106.6522,13.1555 C105.8712,13.9565 104.9402,14.3595 103.8792,14.3595 C102.7842,14.3595 101.8332,13.9645 101.0512,13.1785 C100.2812,12.4025 99.8902,11.4155 99.8902,10.2725 C99.8902,9.1175 100.2702,8.1355 101.0292,7.3535 C101.7792,6.5775 102.7272,6.1815 103.8362,6.1815 C104.9462,6.1815 105.8962,6.5865 106.6722,7.3775 C107.4352,8.1685 107.8242,9.1475 107.8242,10.2725 M103.8792,4.2785 C102.3672,4.2785 101.0522,4.8565 99.9912,5.9965 L99.9912,4.5595 L98.0502,4.5595 L98.0502,19.7195 L99.9912,19.7195 L99.9912,14.4375 C101.1542,15.6085 102.4872,16.1995 103.9802,16.1995 C105.5682,16.1995 106.9512,15.6095 108.0772,14.4405 C109.1992,13.2715 109.7682,11.8565 109.7682,10.2285 C109.7682,8.5985 109.1922,7.1865 108.0522,6.0255 C106.9132,4.8635 105.5112,4.2785 103.8792,4.2785" id="Fill-8" fill="#18208A"></path>
                    <path d="M114.5225,8.8735 C115.1445,7.0625 116.3115,6.1815 118.0725,6.1815 C118.9715,6.1815 119.7685,6.4335 120.4505,6.9365 C121.0875,7.4115 121.5195,8.0555 121.7305,8.8735 L114.5225,8.8735 Z M123.9145,10.4885 C123.8695,8.5735 123.2965,7.0465 122.1905,5.9455 C121.0935,4.8445 119.7115,4.2785 118.0725,4.2785 C116.4385,4.2785 115.0565,4.8685 113.9515,6.0385 C112.8435,7.2065 112.2875,8.6225 112.2875,10.2495 C112.2875,11.8785 112.8435,13.2875 113.9415,14.4515 C115.0375,15.6125 116.4475,16.1995 118.1405,16.1995 C119.3575,16.1995 120.4255,15.9115 121.3025,15.3335 C122.1745,14.7725 122.9505,13.8745 123.5925,12.6955 L123.6585,12.5645 L121.9885,11.7115 L121.9255,11.8275 C121.0305,13.5065 119.7115,14.3595 118.0165,14.3595 C117.0275,14.3595 116.1565,13.9985 115.4445,13.2975 C114.7645,12.6315 114.3725,11.7275 114.2795,10.6315 L123.9165,10.6315 L123.9145,10.4885 Z" id="Fill-10" fill="#18208A"></path>
                    <path d="M134.8335,4.9194 C134.1715,4.4954 133.4185,4.2784 132.6015,4.2784 C131.1875,4.2784 129.9345,4.8524 128.8685,5.9814 L128.8685,4.5594 L126.9045,4.5594 L126.9045,15.8294 L128.8685,15.8294 L128.8685,11.6184 C128.8685,10.1844 128.9375,9.2214 129.0535,8.7494 C129.1785,8.2904 129.4065,7.8444 129.7305,7.4314 C130.0505,7.0214 130.4405,6.6994 130.8905,6.4694 C131.3375,6.2354 131.8055,6.1174 132.2655,6.1174 C132.7355,6.1174 133.1425,6.1884 133.4555,6.3274 C133.7745,6.4714 134.0445,6.6814 134.2495,6.9604 C134.4595,7.2394 134.6175,7.6024 134.7285,8.0204 C134.8395,8.4414 134.8905,9.2604 134.8905,10.4514 L134.8905,15.8294 L136.8375,15.8294 L136.8375,10.0484 C136.8375,8.5414 136.6685,7.4114 136.3385,6.6764 C136.0125,5.9314 135.5015,5.3444 134.8335,4.9194" id="Fill-12" fill="#18208A"></path>
                    <path d="M151.1929,8.4517 C151.1929,9.3667 151.0439,10.1857 150.7519,10.8917 C150.4599,11.5867 150.0269,12.1787 149.4639,12.6537 C148.9119,13.1397 148.2419,13.4607 147.4979,13.6377 C146.7249,13.8047 145.4779,13.8907 143.7969,13.8907 L142.4009,13.8907 L142.4009,2.7777 L143.1489,2.7777 C144.7859,2.7777 146.0639,2.8587 146.9329,3.0197 C147.7969,3.1897 148.5489,3.5147 149.1909,4.0067 C149.8309,4.4907 150.3259,5.1327 150.6749,5.9007 C151.0129,6.6857 151.1929,7.5377 151.1929,8.4517 M150.9849,2.7827 C150.2679,2.0967 149.4009,1.5917 148.4209,1.2707 C147.4339,0.9547 145.8609,0.7907 143.7299,0.7907 L140.4399,0.7907 L140.4399,15.8297 L145.3459,15.8297 C147.3379,15.8297 148.8799,15.5117 149.9329,14.8777 C150.9809,14.2397 151.7999,13.3477 152.3609,12.2207 C152.9329,11.0977 153.2179,9.8767 153.2179,8.6187 C153.2179,7.3537 153.0249,6.2237 152.6369,5.2577 C152.2559,4.2877 151.7019,3.4517 150.9849,2.7827" id="Fill-14" fill="#18208A"></path>
                    <path d="M158.1885,8.8735 C158.8085,7.0625 159.9785,6.1815 161.7485,6.1815 C162.6365,6.1815 163.4325,6.4335 164.1145,6.9365 C164.7505,7.4115 165.1825,8.0555 165.3945,8.8735 L158.1885,8.8735 Z M167.5775,10.4885 C167.5325,8.5735 166.9615,7.0465 165.8555,5.9455 C164.7575,4.8445 163.3785,4.2785 161.7485,4.2785 C160.1115,4.2785 158.7185,4.8685 157.6175,6.0385 C156.5175,7.2065 155.9515,8.6225 155.9515,10.2495 C155.9515,11.8785 156.5125,13.2875 157.6055,14.4515 C158.7015,15.6125 160.1115,16.1995 161.8035,16.1995 C163.0215,16.1995 164.0905,15.9115 164.9675,15.3335 C165.8505,14.7725 166.6145,13.8745 167.2585,12.6955 L167.3225,12.5645 L165.6535,11.7115 L165.5895,11.8275 C164.6975,13.5065 163.3835,14.3595 161.6815,14.3595 C160.6945,14.3595 159.8235,13.9985 159.1095,13.2975 C158.4285,12.6315 158.0375,11.7275 157.9485,10.6315 L167.5815,10.6315 L167.5775,10.4885 Z" id="Fill-16" fill="#18208A"></path>
                    <path d="M173.4243,6.1401 C174.0413,6.1401 174.7403,6.4951 175.4983,7.2091 L175.6013,7.3081 L176.8713,5.9881 L176.7683,5.8901 C175.6743,4.8251 174.6063,4.2791 173.6153,4.2791 C172.6153,4.2791 171.7993,4.5761 171.1893,5.1641 C170.5773,5.7601 170.2693,6.4851 170.2693,7.3151 C170.2693,8.1441 170.4873,8.8321 170.9203,9.3451 C171.3423,9.8481 171.9703,10.3071 172.7833,10.7171 C173.5623,11.1091 174.1273,11.4621 174.4453,11.7521 C174.7473,12.0281 174.8863,12.3621 174.8863,12.7741 C174.8863,13.1871 174.7293,13.5431 174.3883,13.8531 C174.0553,14.1621 173.6483,14.3141 173.1783,14.3141 C172.4743,14.3141 171.7663,13.9041 171.0723,13.0961 L170.9653,12.9701 L169.7283,14.3561 L169.7983,14.4521 C170.7083,15.6131 171.8713,16.2001 173.2373,16.2001 C174.2323,16.2001 175.0763,15.8541 175.7513,15.1901 C176.4253,14.5151 176.7713,13.6791 176.7713,12.7091 C176.7713,11.9321 176.5373,11.2761 176.0853,10.7381 C175.6333,10.2151 174.9893,9.7361 174.1713,9.3031 C173.3813,8.8871 172.8223,8.5391 172.5243,8.2561 C172.2303,7.9981 172.0953,7.7041 172.0953,7.3531 C172.0953,7.0081 172.2133,6.7261 172.4713,6.4951 C172.7293,6.2581 173.0353,6.1401 173.4243,6.1401" id="Fill-18" fill="#18208A"></path>
                    <polygon id="Fill-20" fill="#18208A" points="179.651 15.829 181.615 15.829 181.615 4.559 179.651 4.559"></polygon>
                    <path d="M180.6177,0.4336 C180.2307,0.4336 179.8997,0.5716 179.6177,0.8576 C179.3477,1.1426 179.2057,1.4746 179.2057,1.8586 C179.2057,2.2346 179.3477,2.5746 179.6187,2.8516 C179.8997,3.1316 180.2327,3.2806 180.6287,3.2806 C181.0267,3.2806 181.3637,3.1366 181.6407,2.8646 C181.9197,2.5916 182.0537,2.2496 182.0537,1.8586 C182.0537,1.4636 181.9197,1.1226 181.6407,0.8486 C181.3617,0.5666 181.0237,0.4336 180.6177,0.4336" id="Fill-22" fill="#18208A"></path>
                    <path d="M193.3784,7.2681 C194.1224,7.9911 194.4924,8.9191 194.4924,10.0271 C194.4924,11.1201 194.1294,12.0281 193.4024,12.7381 C192.6724,13.4401 191.7154,13.7901 190.5694,13.7901 C189.4154,13.7901 188.4544,13.4341 187.7184,12.7191 C186.9824,12.0031 186.6134,11.1111 186.6134,10.0821 C186.6134,9.0561 187.0014,8.1351 187.7774,7.3531 C188.5394,6.5781 189.5114,6.1821 190.6484,6.1821 C191.7144,6.1821 192.6334,6.5461 193.3784,7.2681 L193.3784,7.2681 Z M194.4384,5.9641 C193.3124,4.8481 191.9954,4.2791 190.5144,4.2791 C188.9304,4.2791 187.5434,4.8481 186.3864,5.9661 C185.2384,7.0871 184.6554,8.4461 184.6734,10.0241 C184.6554,11.5311 185.2094,12.8611 186.2954,13.9751 C187.3864,15.0921 188.7634,15.6501 190.3804,15.6501 C191.1874,15.6501 191.9874,15.4961 192.7364,15.1801 C193.3784,14.9051 193.9454,14.5331 194.4344,14.0601 C194.4124,15.0091 194.2794,15.7351 194.0494,16.2121 C193.7934,16.7201 193.3424,17.1311 192.7174,17.4361 C192.0864,17.7481 191.3544,17.8991 190.5484,17.8991 C188.7974,17.8991 187.5234,17.2271 186.7744,15.8831 L186.7384,15.8121 L184.6644,15.8121 L184.7404,16.0071 C185.7214,18.4761 187.6924,19.7191 190.6044,19.7191 C191.4664,19.7191 192.2644,19.5991 192.9844,19.3391 C193.7064,19.0931 194.3354,18.7051 194.8524,18.2101 C195.3694,17.7171 195.7614,17.1011 196.0114,16.3831 C196.2704,15.6741 196.4004,14.5741 196.4004,13.1111 L196.4004,4.5591 L194.4384,4.5591 L194.4384,5.9641 Z" id="Fill-23" fill="#18208A"></path>
                    <path d="M209.3521,6.6763 C209.0241,5.9313 208.5091,5.3443 207.8481,4.9193 C207.1821,4.4953 206.4331,4.2793 205.6161,4.2793 C204.2001,4.2793 202.9471,4.8523 201.8821,5.9813 L201.8821,4.5593 L199.9191,4.5593 L199.9191,15.8293 L201.8821,15.8293 L201.8821,11.6183 C201.8821,10.1843 201.9451,9.2213 202.0671,8.7493 C202.1911,8.2913 202.4201,7.8443 202.7461,7.4313 C203.0651,7.0213 203.4561,6.6993 203.9011,6.4703 C204.3491,6.2353 204.8151,6.1173 205.2801,6.1173 C205.7471,6.1173 206.1541,6.1883 206.4681,6.3273 C206.7881,6.4713 207.0581,6.6813 207.2631,6.9593 C207.4741,7.2393 207.6321,7.6023 207.7421,8.0203 C207.8541,8.4413 207.9041,9.2603 207.9041,10.4513 L207.9041,15.8293 L209.8481,15.8293 L209.8481,10.0493 C209.8481,8.5413 209.6811,7.4113 209.3521,6.6763" id="Fill-24" fill="#18208A"></path>
                    <path d="M87.0005,28.8633 C87.5145,29.3973 87.7805,30.0693 87.7805,30.8613 C87.7805,31.6443 87.5145,32.3193 86.9865,32.8393 C86.4595,33.3653 85.8165,33.6403 85.0865,33.6403 C84.3475,33.6403 83.7145,33.3543 83.1855,32.8123 C82.6545,32.2573 82.3875,31.6023 82.3875,30.8523 C82.3875,30.0973 82.6495,29.4463 83.1695,28.8923 C83.6975,28.3313 84.3235,28.0643 85.0795,28.0643 C85.8465,28.0643 86.4715,28.3273 87.0005,28.8633 L87.0005,28.8633 Z M87.7195,27.7813 C86.9925,27.0313 86.0935,26.6583 85.0635,26.6583 C83.9245,26.6583 82.9285,27.0713 82.1345,27.8843 C81.3405,28.6913 80.9365,29.6753 80.9365,30.8133 C80.9365,31.9513 81.3385,32.9443 82.1265,33.7643 C82.9175,34.5853 83.8915,35.0003 85.0055,35.0003 C86.0115,35.0003 86.9235,34.6133 87.7195,33.8523 L87.7195,34.7533 L89.1505,34.7533 L89.1505,26.8543 L87.7195,26.8543 L87.7195,27.7813 Z" id="Fill-25" fill="#FE360B"></path>
                    <polygon id="Fill-26" fill="#FE360B" points="100.998 34.752 102.435 34.752 102.435 23.994 100.998 23.994"></polygon>
                    <polygon id="Fill-27" fill="#FE360B" points="114.906 34.752 116.344 34.752 116.344 23.994 114.906 23.994"></polygon>
                    <polygon id="Fill-28" fill="#FE360B" points="128.394 34.752 129.848 34.752 129.848 26.854 128.394 26.854"></polygon>
                    <path d="M129.1133,23.6626 C128.8333,23.6626 128.5843,23.7676 128.3853,23.9726 C128.1883,24.1776 128.0873,24.4236 128.0873,24.6956 C128.0873,24.9656 128.1883,25.2146 128.3853,25.4206 C128.5853,25.6246 128.8373,25.7296 129.1193,25.7296 C129.4023,25.7296 129.6543,25.6286 129.8523,25.4286 C130.0513,25.2286 130.1543,24.9786 130.1543,24.6956 C130.1543,24.4126 130.0513,24.1616 129.8523,23.9626 C129.6543,23.7646 129.4003,23.6626 129.1133,23.6626" id="Fill-29" fill="#FE360B"></path>
                    <path d="M147.7563,28.8633 C148.2723,29.3973 148.5433,30.0693 148.5433,30.8613 C148.5433,31.6443 148.2693,32.3193 147.7493,32.8393 C147.2133,33.3733 146.5913,33.6403 145.8493,33.6403 C145.1103,33.6403 144.4733,33.3543 143.9473,32.8123 C143.4173,32.2563 143.1413,31.6023 143.1413,30.8523 C143.1413,30.0973 143.4113,29.4463 143.9343,28.8923 C144.4603,28.3313 145.0873,28.0643 145.8403,28.0643 C146.5973,28.0643 147.2413,28.3303 147.7563,28.8633 L147.7563,28.8633 Z M148.4793,27.7813 C147.7553,27.0313 146.8553,26.6583 145.8263,26.6583 C144.6803,26.6583 143.6933,27.0713 142.8983,27.8843 C142.1023,28.6913 141.6983,29.6753 141.6983,30.8133 C141.6983,31.9513 142.0993,32.9443 142.8883,33.7643 C143.6773,34.5853 144.6543,35.0003 145.7673,35.0003 C146.7753,35.0003 147.6863,34.6133 148.4793,33.8523 L148.4793,34.7533 L149.9073,34.7533 L149.9073,26.8543 L148.4793,26.8543 L148.4793,27.7813 Z" id="Fill-30" fill="#FE360B"></path>
                    <path d="M167.9868,27.1021 C167.5138,26.8041 166.9848,26.6581 166.4108,26.6581 C165.4498,26.6581 164.6048,27.0271 163.8808,27.7671 L163.8808,26.8541 L162.4258,26.8541 L162.4258,34.7531 L163.8808,34.7531 L163.8808,31.7901 C163.8808,30.7911 163.9148,30.1341 164.0058,29.8141 C164.0898,29.4981 164.2368,29.1981 164.4578,28.9181 C164.6798,28.6371 164.9408,28.4181 165.2458,28.2561 C165.8558,27.9411 166.5598,27.9801 166.9868,28.1641 C167.2028,28.2551 167.3818,28.3991 167.5148,28.5851 C167.6608,28.7751 167.7708,29.0231 167.8418,29.3031 C167.9148,29.5901 167.9568,30.1621 167.9568,30.9811 L167.9568,34.7531 L169.3948,34.7531 L169.3948,30.6941 C169.3948,29.6361 169.2788,28.8581 169.0418,28.3361 C168.8148,27.8161 168.4508,27.4011 167.9868,27.1021" id="Fill-31" fill="#FE360B"></path>
                    <path d="M188.6343,32.3477 C187.9313,33.2187 187.0893,33.6397 186.0643,33.6397 C185.2333,33.6397 184.5223,33.3547 183.9823,32.8037 C183.4313,32.2417 183.1573,31.5747 183.1573,30.7907 C183.1573,30.0107 183.4263,29.3687 183.9943,28.8407 C184.5433,28.3217 185.2403,28.0487 186.0643,28.0487 C187.1133,28.0487 187.9793,28.4777 188.6183,29.3207 L188.7063,29.4287 L189.8443,28.7087 L189.7683,28.5847 C189.4063,27.9797 188.8913,27.5027 188.2373,27.1637 C187.5893,26.8237 186.8793,26.6587 186.1123,26.6587 C184.8213,26.6587 183.7513,27.0757 182.9373,27.8957 C182.1193,28.7157 181.7043,29.7137 181.7043,30.8677 C181.7043,32.0157 182.1163,33.0077 182.9273,33.8017 C183.7383,34.5937 184.7623,34.9987 185.9693,34.9987 C186.7463,34.9987 187.4753,34.8447 188.1333,34.5277 C188.8063,34.2107 189.3493,33.7487 189.7623,33.1397 L189.8453,33.0217 L188.7253,32.2417 L188.6343,32.3477 Z" id="Fill-32" fill="#FE360B"></path>
                    <path d="M203.5083,29.8418 C203.9383,28.6418 204.7223,28.0648 205.9103,28.0648 C206.5163,28.0648 207.0633,28.2358 207.5243,28.5798 C207.9433,28.8868 208.2253,29.3118 208.3793,29.8418 L203.5083,29.8418 Z M208.5283,31.9118 C208.4123,32.1288 208.2863,32.3308 208.1443,32.5178 C207.5633,33.2658 206.8133,33.6408 205.8643,33.6408 C205.1943,33.6408 204.6073,33.3938 204.1133,32.9208 C203.6643,32.4678 203.3913,31.8768 203.3273,31.1508 L209.9973,31.1508 L209.9923,30.9978 C209.9613,29.6628 209.5583,28.5978 208.7953,27.8188 C208.0193,27.0488 207.0533,26.6578 205.9103,26.6578 C204.7623,26.6578 203.7893,27.0728 203.0143,27.8898 C202.2453,28.7068 201.8503,29.6938 201.8503,30.8358 C201.8503,31.9798 202.2433,32.9638 203.0053,33.7738 C203.7823,34.5868 204.7683,34.9998 205.9513,34.9998 C206.8013,34.9998 207.5513,34.7968 208.1693,34.3978 C208.7823,33.9988 209.3223,33.3778 209.7633,32.5508 L209.8393,32.4228 L208.6033,31.7898 L208.5283,31.9118 Z" id="Fill-33" fill="#FE360B"></path>
                    <path d="M16.7861,1.2383 C9.7641,1.2383 3.7251,5.5513 1.1781,11.6593 L9.6871,11.6593 C11.4391,9.7293 13.9751,8.5073 16.7861,8.5073 C18.7861,8.5073 20.6381,9.1153 22.1751,10.1593 C24.7431,11.8753 26.4271,14.7953 26.4271,18.1173 C26.4271,21.4423 24.7431,24.3613 22.1751,26.0793 C20.6371,27.1203 18.7851,27.7293 16.7861,27.7293 C13.5961,27.7293 10.7771,26.1713 9.0241,23.7733 L0.8701,23.7733 C3.2031,30.3073 9.4601,35.0003 16.7861,35.0003 C26.1011,35.0003 33.6841,27.4253 33.6841,18.1193 C33.6841,8.8113 26.1011,1.2383 16.7861,1.2383" id="18208A" fill="#18208A"></path>
                    <path d="M0.4604,13.7988 C0.2514,14.5898 0.0904,15.4098 0.0004,16.2398 L0.0004,16.7848 L7.3544,16.7848 C7.5094,15.7208 7.8284,14.7178 8.2894,13.7988 L0.4604,13.7988 Z" id="Fill-35" fill="#FE360B"></path>
                    <path d="M0,18.6841 L0,19.9231 C0.058,20.5051 0.153,21.0691 0.275,21.6351 L7.932,21.6351 C7.56,20.7121 7.338,19.7171 7.283,18.6841 L0,18.6841 Z" id="Fill-36" fill="#FE360B"></path>
                </g>
            </g>
        </g>
    </g>
</svg>